<svg width="40" height="40" viewBox="0 0 40 40" fill="none" xmlns="http://www.w3.org/2000/svg">
<path d="M39.7711 7.33719L32.6617 0.228828C32.5152 0.0823437 32.3166 0 32.1094 0H8.90625C7.61391 0 6.5625 1.05141 6.5625 2.34375V3.83312C2.72461 5.33859 0 9.0793 0 13.4446C0 13.876 0.349844 14.2259 0.78125 14.2259H10.3196C10.751 14.2259 11.1009 13.876 11.1009 13.4446V3.90625C11.1009 3.47484 10.751 3.125 10.3196 3.125C9.56664 3.125 8.83258 3.2068 8.125 3.3607V2.34375C8.125 1.91297 8.47547 1.5625 8.90625 1.5625H31.3281V6.32812C31.3281 7.62047 32.3795 8.67188 33.6719 8.67188H38.4375V37.6562C38.4375 38.087 38.087 38.4375 37.6562 38.4375H8.90625C8.47547 38.4375 8.125 38.087 8.125 37.6562V30.9635C8.125 30.5321 7.77516 30.1823 7.34375 30.1823C6.91234 30.1823 6.5625 30.5321 6.5625 30.9635V37.6562C6.5625 38.9486 7.61391 40 8.90625 40H37.6562C38.9486 40 40 38.9486 40 37.6562V7.88961C40 7.68242 39.9177 7.48367 39.7711 7.33719ZM9.53828 4.72211V12.6634H1.59703C1.97055 8.45648 5.33148 5.09562 9.53828 4.72211ZM33.6719 7.10938C33.2411 7.10938 32.8906 6.75891 32.8906 6.32812V2.66719L37.3334 7.10938H33.6719Z" fill="#314476"/>
<path d="M7.89602 27.5727C7.75078 27.4273 7.54922 27.3438 7.34375 27.3438C7.13828 27.3438 6.93672 27.4273 6.79141 27.5727C6.64609 27.718 6.5625 27.9195 6.5625 28.125C6.5625 28.3305 6.64602 28.532 6.79141 28.6773C6.93672 28.8227 7.13828 28.9062 7.34375 28.9062C7.54922 28.9062 7.75078 28.8227 7.89602 28.6773C8.04141 28.532 8.125 28.3305 8.125 28.125C8.125 27.9195 8.04141 27.718 7.89602 27.5727Z" fill="#314476"/>
<path d="M13.1179 5.92334C12.6865 5.92334 12.3366 6.27318 12.3366 6.70459V15.4616H3.57959C3.14818 15.4616 2.79834 15.8115 2.79834 16.2429C2.79834 21.9331 7.42764 26.5625 13.1179 26.5625C18.8081 26.5625 23.4375 21.9331 23.4375 16.2429C23.4375 10.5526 18.8081 5.92334 13.1179 5.92334ZM13.8991 7.52045C15.728 7.68279 17.3969 8.41014 18.7301 9.52592L13.8991 14.3568V7.52045ZM13.1179 25C8.55248 25 4.79178 21.4883 4.39545 17.0241H13.1179C13.3335 17.0241 13.5287 16.9368 13.6701 16.7955C13.6701 16.7954 13.6702 16.7954 13.6704 16.7953L19.8351 10.6306C21.1079 12.1515 21.875 14.1093 21.875 16.2429C21.875 21.0715 17.9465 25 13.1179 25Z" fill="#314476"/>
<path d="M34.2245 24.6567C32.9321 24.6567 31.8807 25.7081 31.8807 27.0005C31.8807 27.3244 31.9468 27.6331 32.0661 27.9139L27.5651 32.4149C27.2558 32.2642 26.9086 32.1795 26.5421 32.1795C26.1842 32.1795 25.845 32.2604 25.5413 32.4044L22.5524 29.4155C22.656 29.1511 22.7135 28.8637 22.7135 28.5629C22.7135 27.2706 21.6621 26.2192 20.3697 26.2192C19.0774 26.2192 18.026 27.2706 18.026 28.5629C18.026 28.9131 18.1037 29.2453 18.242 29.5439L15.3752 32.4107C15.0698 32.2646 14.7281 32.1827 14.3676 32.1827C13.0753 32.1827 12.0239 33.2341 12.0239 34.5264C12.0239 35.8188 13.0753 36.8702 14.3676 36.8702C15.66 36.8702 16.7114 35.8188 16.7114 34.5264C16.7114 34.1642 16.6287 33.8209 16.4814 33.5144L19.3321 30.6636C19.6452 30.8189 19.9974 30.9067 20.3699 30.9067C20.7906 30.9067 21.1854 30.7947 21.527 30.5999L24.4316 33.5045C24.2822 33.8127 24.1983 34.1583 24.1983 34.5232C24.1983 35.8156 25.2497 36.867 26.5421 36.867C27.8344 36.867 28.8858 35.8156 28.8858 34.5232C28.8858 34.1671 28.8057 33.8295 28.6629 33.527L33.1219 29.068C33.4507 29.2441 33.8261 29.3442 34.2245 29.3442C35.5168 29.3442 36.5682 28.2928 36.5682 27.0005C36.5682 25.7081 35.5168 24.6567 34.2245 24.6567ZM14.3675 35.3078C13.9368 35.3078 13.5863 34.9573 13.5863 34.5265C13.5863 34.0957 13.9368 33.7453 14.3675 33.7453C14.5773 33.7453 14.7675 33.8288 14.908 33.9638C14.9111 33.967 14.9139 33.9706 14.9171 33.9738C14.9208 33.9775 14.9249 33.9806 14.9287 33.9842C15.0646 34.1249 15.1488 34.316 15.1488 34.5265C15.1488 34.9572 14.7983 35.3078 14.3675 35.3078ZM20.3697 29.3442C19.9389 29.3442 19.5885 28.9937 19.5885 28.5629C19.5885 28.1321 19.9389 27.7817 20.3697 27.7817C20.8005 27.7817 21.151 28.1321 21.151 28.5629C21.151 28.9937 20.8005 29.3442 20.3697 29.3442ZM26.5419 35.3045C26.1111 35.3045 25.7607 34.954 25.7607 34.5232C25.7607 34.0924 26.1111 33.742 26.5419 33.742C26.9727 33.742 27.3232 34.0924 27.3232 34.5232C27.3232 34.954 26.9727 35.3045 26.5419 35.3045ZM34.2243 27.7817C33.7936 27.7817 33.4431 27.4312 33.4431 27.0004C33.4431 26.5696 33.7936 26.2192 34.2243 26.2192C34.6551 26.2192 35.0056 26.5696 35.0056 27.0004C35.0056 27.4312 34.6551 27.7817 34.2243 27.7817Z" fill="#314476"/>
<path d="M30.3195 18.3594H26.1962C25.7648 18.3594 25.4149 18.7092 25.4149 19.1406C25.4149 19.572 25.7647 19.9219 26.1962 19.9219H30.3195C30.7509 19.9219 31.1008 19.572 31.1008 19.1406C31.1008 18.7092 30.7509 18.3594 30.3195 18.3594Z" fill="#314476"/>
<path d="M34.4289 18.5883C34.2836 18.443 34.0821 18.3594 33.8766 18.3594C33.6711 18.3594 33.4696 18.4429 33.3242 18.5883C33.1789 18.7336 33.0953 18.9352 33.0953 19.1406C33.0953 19.3461 33.1789 19.5477 33.3242 19.6929C33.4696 19.8382 33.6703 19.9219 33.8766 19.9219C34.0821 19.9219 34.2836 19.8383 34.4289 19.6929C34.5742 19.5477 34.6578 19.3461 34.6578 19.1406C34.6578 18.9352 34.5742 18.7336 34.4289 18.5883Z" fill="#314476"/>
<path d="M35.7394 10.8594H26.1962C25.7648 10.8594 25.4149 11.2092 25.4149 11.6406C25.4149 12.072 25.7647 12.4219 26.1962 12.4219H35.7394C36.1709 12.4219 36.5207 12.072 36.5207 11.6406C36.5207 11.2092 36.1709 10.8594 35.7394 10.8594Z" fill="#314476"/>
<path d="M35.7394 14.6094H26.1962C25.7648 14.6094 25.4149 14.9592 25.4149 15.3906C25.4149 15.822 25.7647 16.1719 26.1962 16.1719H35.7394C36.1709 16.1719 36.5207 15.822 36.5207 15.3906C36.5207 14.9592 36.1709 14.6094 35.7394 14.6094Z" fill="#314476"/>
</svg>
