<svg width="40" height="40" viewBox="0 0 40 40" fill="none" xmlns="http://www.w3.org/2000/svg">
<g clip-path="url(#clip0_113_269)">
<path d="M20.8004 25.9201V24.5097C21.9378 24.1593 22.7214 23.1113 22.7214 21.9193C22.7214 20.4193 21.5008 19.1993 20 19.1993C19.3821 19.1993 18.8794 18.6969 18.8794 18.0793C18.8794 17.4617 19.3821 16.9593 20 16.9593C20.6179 16.9593 21.1206 17.4617 21.1206 18.0793V18.2393H22.7214V18.0793C22.7214 16.8881 21.9378 15.8401 20.8004 15.4897V14.0801H19.1996V15.4905C18.0622 15.8409 17.2786 16.8889 17.2786 18.0801C17.2786 19.5801 18.4992 20.8001 20 20.8001C20.6179 20.8001 21.1206 21.3025 21.1206 21.9201C21.1206 22.5377 20.6179 23.0401 20 23.0401C19.3821 23.0401 18.8794 22.5377 18.8794 21.9201V21.7601H17.2786V21.9201C17.2786 23.1113 18.0622 24.1593 19.1996 24.5105V25.9201H20.8004Z" fill="#314476"/>
<path d="M20.1601 13.12V11.52H20C15.3215 11.52 11.5156 15.324 11.5156 20V20.16H13.1164V20C13.1164 16.2064 16.2044 13.12 20 13.12H20.1601Z" fill="#314476"/>
<path d="M26.8836 19.8401V20.0001C26.8836 23.7937 23.7956 26.8801 20 26.8801H19.8399V28.4801H20C24.6784 28.4801 28.4844 24.6761 28.4844 20.0001V19.8401H26.8836Z" fill="#314476"/>
<path d="M13.7488 5.27844C13.6607 5.07684 13.499 4.92484 13.2925 4.84804C13.086 4.77204 12.8635 4.78324 12.6658 4.87844C11.0882 5.64244 9.64423 6.64804 8.37397 7.86564C8.21549 8.01764 8.12744 8.22244 8.12744 8.44244C8.12744 8.66244 8.21389 8.86724 8.37157 9.01924C8.52845 9.17044 8.72855 9.24564 8.92946 9.24564C9.12716 9.24564 9.32406 9.17204 9.47694 9.02484C10.6295 7.92004 11.939 7.00804 13.3694 6.31524C13.7552 6.12964 13.9216 5.67364 13.7488 5.27844Z" fill="#314476"/>
<path d="M15.4848 5.44571C15.5593 5.44571 15.6361 5.43531 15.7114 5.41291L15.7658 5.39691C16.178 5.27771 16.4205 4.85771 16.3165 4.43611C16.2636 4.22331 16.1308 4.04571 15.9403 3.93611C15.7498 3.82651 15.5289 3.79931 15.3176 3.86011L15.2615 3.87611C15.0502 3.93771 14.8781 4.07931 14.7773 4.27451C14.6756 4.46891 14.6588 4.69131 14.7308 4.90331C14.8437 5.23531 15.1511 5.44571 15.4848 5.44571Z" fill="#314476"/>
<path d="M18.0686 4.91534C18.1006 4.91534 18.1326 4.91374 18.1654 4.90974L18.1791 4.90814C18.6057 4.85774 18.9138 4.48254 18.8802 4.05054C18.8634 3.83134 18.7602 3.63454 18.5905 3.49534C18.4208 3.35614 18.2071 3.29374 17.9894 3.32014L17.9757 3.32174C17.758 3.34814 17.5651 3.45854 17.4331 3.63374C17.301 3.80894 17.2474 4.02414 17.2826 4.24414C17.3458 4.63614 17.6812 4.91534 18.0686 4.91534Z" fill="#314476"/>
<path d="M20.0009 1.6C24.9163 1.6 29.5379 3.5128 33.0149 6.9856C33.3287 7.2992 33.8385 7.3008 34.1507 6.9896L35.2096 5.9312V10.24H30.8986L31.8871 9.252C32.0384 9.1008 32.1208 8.8992 32.1208 8.6848C32.12 8.4712 32.0368 8.2696 31.8855 8.1184C28.8856 5.1208 24.9043 3.3784 20.6757 3.2136C20.4548 3.2048 20.2459 3.284 20.0874 3.4368C19.9289 3.5888 19.8417 3.7936 19.8417 4.0128C19.8417 4.444 20.1778 4.7952 20.6061 4.812C24.1511 4.9496 27.5425 6.3296 30.1742 8.7016L28.4125 10.4624C28.222 10.6528 28.1332 10.916 28.1748 11.1664C28.2388 11.5568 28.5718 11.8408 28.9656 11.8408H36.0093C36.4503 11.8408 36.8097 11.4816 36.8097 11.0408V4C36.8097 3.6744 36.616 3.3848 36.3158 3.2608C36.0157 3.1352 35.6731 3.204 35.4426 3.4344L33.5728 5.3032C29.8717 1.8824 25.0588 0 20.0009 0C14.7798 0 9.83485 2.0056 6.07769 5.648C2.32934 9.2816 0.171421 14.144 0.00173302 19.3384C-0.00547073 19.5544 0.0737705 19.7592 0.225049 19.9152C0.377128 20.0736 0.582035 20.16 0.801349 20.16C1.23517 20.16 1.58656 19.8184 1.60177 19.3816C1.93314 9.4104 10.0149 1.6 20.0009 1.6Z" fill="#314476"/>
<path d="M26.7083 35.1512C26.7987 35.1848 26.8932 35.2016 26.986 35.2016C27.1053 35.2016 27.2237 35.1744 27.335 35.1208C28.9118 34.3568 30.3558 33.352 31.6268 32.1336C31.7853 31.9816 31.8734 31.7768 31.8734 31.5568C31.8734 31.3368 31.7869 31.132 31.6284 30.98C31.3179 30.68 30.832 30.6776 30.5231 30.9744C29.3705 32.0792 28.061 32.9912 26.6306 33.684C26.2456 33.8704 26.0792 34.3264 26.252 34.7216C26.3401 34.9224 26.5018 35.0752 26.7083 35.1512Z" fill="#314476"/>
<path d="M24.2894 34.5872L24.235 34.6032C23.8228 34.7224 23.5802 35.1424 23.6843 35.564C23.7371 35.7768 23.87 35.9544 24.0605 36.064C24.1837 36.1352 24.3206 36.172 24.4591 36.172C24.5335 36.172 24.6088 36.1616 24.6832 36.14L24.7392 36.124C24.9505 36.0624 25.1226 35.9208 25.2235 35.7256C25.3251 35.5304 25.3419 35.3088 25.2699 35.0968C25.1314 34.6896 24.7008 34.4664 24.2894 34.5872Z" fill="#314476"/>
<path d="M21.8329 35.0904L21.8209 35.092C21.3943 35.1432 21.0861 35.5176 21.1198 35.9496C21.1366 36.1688 21.2398 36.3656 21.4095 36.5048C21.5536 36.6232 21.7297 36.6856 21.9138 36.6856C21.9458 36.6856 21.9778 36.684 22.0106 36.68L22.0242 36.6784C22.2419 36.652 22.4348 36.5416 22.5669 36.3664C22.699 36.1912 22.7526 35.976 22.7174 35.756C22.6494 35.332 22.2611 35.04 21.8329 35.0904Z" fill="#314476"/>
<path d="M39.776 20.0841C39.6231 19.9265 39.4182 19.8401 39.1988 19.8401C38.765 19.8401 38.4136 20.1817 38.3992 20.6185C38.0687 30.5897 29.986 38.4001 20 38.4001C15.0847 38.4001 10.4631 36.4873 6.98607 33.0145C6.6723 32.7009 6.16244 32.6993 5.85028 33.0113L4.79132 34.0697V29.7601H9.10237L8.11386 30.7481C7.96258 30.8993 7.88013 31.1009 7.88013 31.3153C7.88093 31.5289 7.96418 31.7305 8.11546 31.8817C11.1154 34.8793 15.0967 36.6217 19.3253 36.7865C19.5462 36.7961 19.7551 36.7161 19.9136 36.5633C20.0721 36.4113 20.1593 36.2065 20.1593 35.9873C20.1593 35.5561 19.8232 35.2049 19.3949 35.1889C15.8499 35.0513 12.4585 33.6713 9.82595 31.2993L11.5877 29.5385C11.7774 29.3481 11.8662 29.0849 11.8254 28.8345C11.7614 28.4441 11.4284 28.1601 11.0346 28.1601H3.99091C3.54988 28.1601 3.19049 28.5193 3.19049 28.9601V36.0001C3.19049 36.3257 3.38419 36.6153 3.68435 36.7393C3.9837 36.8641 4.32628 36.7961 4.5568 36.5657L6.42658 34.6969C10.1293 38.1177 14.9422 40.0001 20 40.0001C25.2212 40.0001 30.1661 37.9945 33.9233 34.3521C37.6725 30.7185 39.8304 25.8561 40.0001 20.6617C40.0065 20.4457 39.9272 20.2401 39.776 20.0841Z" fill="#314476"/>
<path d="M31.0458 20C31.0458 13.9128 26.0904 8.95996 20 8.95996C13.9097 8.95996 8.95428 13.9128 8.95428 20C8.95428 26.0872 13.9097 31.04 20 31.04C26.0904 31.04 31.0458 26.0872 31.0458 20ZM20 29.44C14.7917 29.44 10.5551 25.2056 10.5551 20C10.5551 14.7944 14.7917 10.56 20 10.56C25.2083 10.56 29.4449 14.7944 29.4449 20C29.4449 25.2056 25.2083 29.44 20 29.44Z" fill="#314476"/>
</g>
<defs>
<clipPath id="clip0_113_269">
<rect width="40" height="40" fill="white"/>
</clipPath>
</defs>
</svg>
