<svg width="40" height="40" viewBox="0 0 40 40" fill="none" xmlns="http://www.w3.org/2000/svg">
<g clip-path="url(#clip0_113_237)">
<path d="M36.0963 0.013916H12.9863C10.8338 0.013916 9.08261 1.76512 9.08261 3.91763V17.7116C3.91331 18.7217 0 23.2846 0 28.7452C0 34.9445 5.04344 39.9879 11.2427 39.9879H36.0963C38.2488 39.9879 40 38.2367 40 36.0842V3.91763C40 1.76504 38.2488 0.013916 36.0963 0.013916ZM1.56148 28.7452C1.56148 23.407 5.90444 19.064 11.2427 19.064C16.5809 19.064 20.9239 23.407 20.9239 28.7452C20.9239 34.0835 16.5809 38.4264 11.2427 38.4264C5.90444 38.4264 1.56148 34.0835 1.56148 28.7452ZM14.3917 17.3464V15.4726C14.3917 15.0421 14.7419 14.6919 15.1724 14.6919H17.0462C17.4767 14.6919 17.8269 15.0421 17.8269 15.4726V17.3464C17.8269 17.7769 17.4767 18.1271 17.0462 18.1271H15.1724C14.7419 18.1271 14.3917 17.7769 14.3917 17.3464ZM38.4385 36.0842C38.4385 37.3757 37.3878 38.4264 36.0963 38.4264H16.9523C18.7874 37.34 20.2888 35.7476 21.2622 33.8418V34.2104C21.2622 35.5019 22.3129 36.5527 23.6044 36.5527H25.4782C26.7697 36.5527 27.8204 35.5019 27.8204 34.2104V32.3366C27.8204 31.0451 26.7697 29.9944 25.4782 29.9944H23.6044C23.152 29.9944 22.7294 30.1237 22.3708 30.3468C22.4457 29.8235 22.4854 29.2889 22.4854 28.7452C22.4854 28.4313 22.4718 28.1206 22.4464 27.8131C22.7882 28.0084 23.1834 28.1206 23.6044 28.1206H25.4782C26.7697 28.1206 27.8204 27.0699 27.8204 25.7784V23.9046C27.8204 22.6131 26.7697 21.5624 25.4782 21.5624H23.6044C22.3915 21.5624 21.391 22.4893 21.2738 23.672C20.4449 22.0397 19.2296 20.6354 17.7485 19.5809C18.6979 19.2818 19.3884 18.3933 19.3884 17.3464V15.4726C19.3884 14.1811 18.3377 13.1304 17.0462 13.1304H15.1724C13.8809 13.1304 12.8302 14.1811 12.8302 15.4726V17.3464C12.8302 17.4381 12.836 17.5284 12.8463 17.6174C12.3224 17.5422 11.7871 17.5025 11.2427 17.5025C11.0419 17.5025 10.8423 17.5081 10.6441 17.5185V3.91763C10.6441 2.62612 11.6948 1.5754 12.9863 1.5754H36.0963C37.3878 1.5754 38.4385 2.62612 38.4385 3.91763V36.0842ZM22.8237 34.2104V32.3366C22.8237 31.9061 23.1739 31.5559 23.6044 31.5559H25.4782C25.9087 31.5559 26.2589 31.9061 26.2589 32.3366V34.2104C26.2589 34.6409 25.9087 34.9912 25.4782 34.9912H23.6044C23.1739 34.9912 22.8237 34.6409 22.8237 34.2104ZM22.8237 25.7784V23.9046C22.8237 23.4741 23.1739 23.1239 23.6044 23.1239H25.4782C25.9087 23.1239 26.2589 23.4741 26.2589 23.9046V25.7784C26.2589 26.2089 25.9087 26.5592 25.4782 26.5592H23.6044C23.1739 26.5592 22.8237 26.2089 22.8237 25.7784Z" fill="#314476"/>
<path d="M35.4716 3.44824H28.0546C27.6234 3.44824 27.2738 3.79778 27.2738 4.22898C27.2738 4.66019 27.6234 5.00973 28.0546 5.00973H34.6909V9.69418H14.3916V5.00973H21.0279C21.459 5.00973 21.8086 4.66019 21.8086 4.22898C21.8086 3.79778 21.459 3.44824 21.0279 3.44824H13.6108C13.1797 3.44824 12.8301 3.79778 12.8301 4.22898V10.4749C12.8301 10.9061 13.1797 11.2557 13.6108 11.2557H35.4716C35.9027 11.2557 36.2523 10.9061 36.2523 10.4749V4.22898C36.2523 3.79778 35.9027 3.44824 35.4716 3.44824Z" fill="#314476"/>
<path d="M25.4782 13.1294H23.6044C22.3129 13.1294 21.2622 14.1801 21.2622 15.4716V17.3454C21.2622 18.6369 22.3129 19.6876 23.6044 19.6876H25.4782C26.7697 19.6876 27.8204 18.6369 27.8204 17.3454V15.4716C27.8204 14.1801 26.7697 13.1294 25.4782 13.1294ZM26.259 17.3454C26.259 17.7759 25.9087 18.1261 25.4782 18.1261H23.6044C23.1739 18.1261 22.8237 17.7759 22.8237 17.3454V15.4716C22.8237 15.0411 23.1739 14.6909 23.6044 14.6909H25.4782C25.9087 14.6909 26.259 15.0411 26.259 15.4716V17.3454Z" fill="#314476"/>
<path d="M33.9102 13.1294H32.0364C30.7449 13.1294 29.6942 14.1801 29.6942 15.4716V17.3454C29.6942 18.6369 30.7449 19.6876 32.0364 19.6876H33.9102C35.2017 19.6876 36.2525 18.6369 36.2525 17.3454V15.4716C36.2525 14.1801 35.2017 13.1294 33.9102 13.1294ZM34.691 17.3454C34.691 17.7759 34.3407 18.1261 33.9102 18.1261H32.0364C31.6059 18.1261 31.2557 17.7759 31.2557 17.3454V15.4716C31.2557 15.0411 31.6059 14.6909 32.0364 14.6909H33.9102C34.3407 14.6909 34.691 15.0411 34.691 15.4716V17.3454Z" fill="#314476"/>
<path d="M33.9102 21.5615H32.0364C30.7449 21.5615 29.6942 22.6122 29.6942 23.9037V34.2095C29.6942 35.501 30.7449 36.5518 32.0364 36.5518H33.9102C35.2017 36.5518 36.2525 35.501 36.2525 34.2095V23.9037C36.2525 22.6122 35.2017 21.5615 33.9102 21.5615ZM34.691 34.2095C34.691 34.64 34.3407 34.9903 33.9102 34.9903H32.0364C31.6059 34.9903 31.2557 34.64 31.2557 34.2095V23.9037C31.2557 23.4732 31.6059 23.123 32.0364 23.123H33.9102C34.3407 23.123 34.691 23.4732 34.691 23.9037V34.2095Z" fill="#314476"/>
<path d="M24.5414 5.00973C24.7467 5.00973 24.9481 4.92619 25.0933 4.78097C25.2385 4.63575 25.3221 4.43432 25.3221 4.22898C25.3221 4.02365 25.2386 3.82222 25.0933 3.677C24.9481 3.53178 24.7467 3.44824 24.5414 3.44824C24.336 3.44824 24.1346 3.53178 23.9894 3.677C23.8442 3.82222 23.7606 4.02365 23.7606 4.22898C23.7606 4.43432 23.8441 4.63575 23.9894 4.78097C24.1347 4.92619 24.336 5.00973 24.5414 5.00973Z" fill="#314476"/>
<path d="M13.7882 23.6059C13.4005 23.4177 12.9333 23.5792 12.7449 23.9672L8.44899 32.8134C8.26059 33.2012 8.42236 33.6684 8.81024 33.8567C8.92009 33.9101 9.03626 33.9354 9.15072 33.9354C9.44029 33.9354 9.71855 33.7735 9.85354 33.4955L14.1495 24.6493C14.338 24.2614 14.1762 23.7943 13.7882 23.6059Z" fill="#314476"/>
<path d="M9.26923 23.1675C8.29502 22.1932 6.70972 22.1932 5.73535 23.1675C4.76107 24.1417 4.76107 25.727 5.73535 26.7013C6.22254 27.1884 6.86243 27.432 7.50225 27.432C8.14215 27.432 8.78212 27.1884 9.26923 26.7013C10.2434 25.727 10.2434 24.1417 9.26923 23.1675ZM8.16502 25.5972C7.79956 25.9626 7.20495 25.9627 6.83948 25.5972C6.47394 25.2317 6.47394 24.6371 6.83948 24.2717C7.02217 24.0889 7.26217 23.9975 7.50225 23.9975C7.74225 23.9975 7.98225 24.0889 8.16495 24.2717C8.53057 24.6371 8.53057 25.2317 8.16502 25.5972Z" fill="#314476"/>
<path d="M13.355 30.7873C12.3807 31.7616 12.3807 33.3469 13.355 34.3211C13.8421 34.8082 14.4821 35.0518 15.1219 35.0518C15.7618 35.0518 16.4018 34.8082 16.8889 34.3211C17.8631 33.3469 17.8631 31.7616 16.8889 30.7873C15.9144 29.8131 14.3292 29.8131 13.355 30.7873ZM15.7847 33.2169C15.4192 33.5826 14.8244 33.5824 14.4591 33.2169C14.0936 32.8515 14.0936 32.2569 14.4591 31.8914C14.6418 31.7087 14.8818 31.6173 15.1219 31.6173C15.3619 31.6173 15.6019 31.7086 15.7846 31.8914C16.1501 32.2569 16.1501 32.8515 15.7847 33.2169Z" fill="#314476"/>
</g>
<defs>
<clipPath id="clip0_113_237">
<rect width="40" height="40" fill="white"/>
</clipPath>
</defs>
</svg>
