<svg width="41" height="41" viewBox="0 0 41 41" fill="none" xmlns="http://www.w3.org/2000/svg">
<g clip-path="url(#clip0_113_320)">
<path d="M37.7969 0.000976562H3.20312C1.43692 0.000976562 0 1.4379 0 3.2041V28.3553C0 30.1215 1.43692 31.5584 3.20312 31.5584H15.7754V35.5781C13.4265 35.8069 11.5847 37.7922 11.5847 40.2001C11.5847 40.6424 11.9432 41.0009 12.3854 41.0009H28.6146C29.0569 41.0009 29.4154 40.6424 29.4154 40.2001C29.4154 37.7378 27.4891 35.718 25.0645 35.5658V31.5584H28.8015C29.2438 31.5584 29.6023 31.1999 29.6023 30.7576C29.6023 30.3154 29.2438 29.9568 28.8015 29.9568H3.20312C2.32002 29.9568 1.60156 29.2384 1.60156 28.3553V3.2041C1.60156 2.321 2.32002 1.60254 3.20312 1.60254H37.7969C38.68 1.60254 39.3984 2.321 39.3984 3.2041V28.3553C39.3984 29.2384 38.68 29.9568 37.7969 29.9568H26.2259C25.7836 29.9568 25.4251 30.3154 25.4251 30.7576C25.4251 31.1999 25.7836 31.5584 26.2259 31.5584H37.7969C39.5631 31.5584 41 30.1215 41 28.3553V3.2041C41 1.43782 39.5631 0.000976562 37.7969 0.000976562ZM17.377 31.5584H23.4629V35.5557H17.377V31.5584ZM24.7708 37.1572C26.1717 37.1572 27.3545 38.1087 27.707 39.3994H13.293C13.6454 38.1087 14.8282 37.1572 16.2291 37.1572H24.7708Z" fill="#314476"/>
<path d="M20.9861 27.6279C20.8371 27.479 20.6305 27.3933 20.4199 27.3933C20.2093 27.3933 20.0027 27.479 19.8538 27.6279C19.7048 27.7769 19.6191 27.9835 19.6191 28.1941C19.6191 28.4055 19.7048 28.6113 19.8538 28.7602C20.0027 28.91 20.2093 28.9949 20.4199 28.9949C20.6305 28.9949 20.8371 28.91 20.9861 28.7602C21.135 28.6113 21.2207 28.4055 21.2207 28.1941C21.2207 27.9835 21.135 27.7769 20.9861 27.6279Z" fill="#314476"/>
<path d="M36.9961 3.20996H24.2637C23.8214 3.20996 23.4629 3.56847 23.4629 4.01074C23.4629 4.45301 23.8214 4.81152 24.2637 4.81152H36.1953V24.8311H4.80469V4.81152H17.0967C17.539 4.81152 17.8975 4.45301 17.8975 4.01074C17.8975 3.56847 17.539 3.20996 17.0967 3.20996H4.00391C3.56163 3.20996 3.20312 3.56847 3.20312 4.01074V25.6318C3.20312 26.0741 3.56163 26.4326 4.00391 26.4326H36.9961C37.4384 26.4326 37.7969 26.0741 37.7969 25.6318V4.01074C37.7969 3.56847 37.4384 3.20996 36.9961 3.20996Z" fill="#314476"/>
<path d="M21.2263 3.44435C21.0774 3.2954 20.8708 3.20972 20.6602 3.20972C20.4496 3.20972 20.2429 3.2954 20.094 3.44435C19.9451 3.59329 19.8594 3.79989 19.8594 4.0105C19.8594 4.2211 19.9451 4.4277 20.094 4.57745C20.2429 4.7264 20.4496 4.81128 20.6602 4.81128C20.8708 4.81128 21.0774 4.7264 21.2263 4.57745C21.3753 4.4277 21.4609 4.2219 21.4609 4.0105C21.4609 3.79989 21.3753 3.59329 21.2263 3.44435Z" fill="#314476"/>
</g>
<defs>
<clipPath id="clip0_113_320">
<rect width="41" height="41" fill="white"/>
</clipPath>
</defs>
</svg>
