<svg width="40" height="40" viewBox="0 0 40 40" fill="none" xmlns="http://www.w3.org/2000/svg">
<path d="M33.8663 7.04407C33.8632 7.04102 33.8605 7.03796 33.8577 7.03461C33.8538 7.03033 33.8498 7.02576 33.8455 7.02148L33.587 6.7395L28.4671 1.15021C27.8976 0.528565 27.142 0.137634 26.315 0.0302124C26.3141 0.0302124 26.3132 0.0302124 26.3123 0.0299072C26.3013 0.0286866 26.2903 0.0271606 26.279 0.0259399C26.1386 0.00885008 25.9967 0 25.8539 0H11.6751C10.0833 0 8.78815 1.29486 8.78815 2.88666V4.29077H7.80151C6.38611 4.29077 5.23438 5.4425 5.23438 6.85852V36.0757C5.23438 38.2397 6.99463 40 9.15863 40H27.0938C28.5092 40 29.6609 38.8483 29.6609 37.4329V36.2094H31.8896C33.4814 36.2094 34.7766 34.9142 34.7766 33.3228V9.41559C34.7766 8.53668 34.4534 7.69562 33.8663 7.04407ZM32.6468 8.02582H27.3224C27.0135 8.02582 26.7624 7.77466 26.7624 7.46582V1.78375C26.9681 1.88995 27.1558 2.03217 27.3148 2.20581L32.2754 7.62054L32.6468 8.02582ZM31.89 34.6469H11.6751C10.9448 34.6469 10.3506 34.0527 10.3506 33.3228V29.6875C10.3506 29.256 10.0009 28.9062 9.5694 28.9062C9.13818 28.9062 8.78815 29.256 8.78815 29.6875V33.3228C8.78815 34.9146 10.0833 36.2094 11.6751 36.2094H28.0984V37.4329C28.0984 37.9868 27.6477 38.4375 27.0938 38.4375H9.15863C7.85645 38.4375 6.79688 37.3779 6.79688 36.0757V6.85852C6.79688 6.30402 7.24762 5.85327 7.80151 5.85327H8.78815V23.4375C8.78815 23.869 9.13818 24.2188 9.5694 24.2188C10.0009 24.2188 10.3506 23.869 10.3506 23.4375V2.88666C10.3506 2.15668 10.9448 1.5625 11.6751 1.5625H25.1999V7.46582C25.1999 8.63617 26.152 9.58832 27.3224 9.58832H33.2141V33.3228C33.2141 34.0527 32.6199 34.6469 31.89 34.6469Z" fill="#314476"/>
<path d="M14.5355 11.1318H22.8882C23.3194 11.1318 23.6694 10.7821 23.6694 10.3506C23.6694 9.91907 23.3194 9.56934 22.8882 9.56934H14.5355C14.104 9.56934 13.7543 9.91907 13.7543 10.3506C13.7543 10.7821 14.104 11.1318 14.5355 11.1318Z" fill="#314476"/>
<path d="M26.7838 16.0315H14.5355C14.104 16.0315 13.7543 16.3812 13.7543 16.8127C13.7543 17.2443 14.104 17.594 14.5355 17.594H26.7838C27.2153 17.594 27.565 17.2443 27.565 16.8127C27.565 16.3812 27.2153 16.0315 26.7838 16.0315Z" fill="#314476"/>
<path d="M26.7838 22.4937H14.5355C14.104 22.4937 13.7543 22.8434 13.7543 23.2749C13.7543 23.7064 14.104 24.0562 14.5355 24.0562H26.7838C27.2153 24.0562 27.565 23.7064 27.565 23.2749C27.565 22.8434 27.2153 22.4937 26.7838 22.4937Z" fill="#314476"/>
<path d="M26.7838 28.9553H14.5355C14.104 28.9553 13.7543 29.3051 13.7543 29.7366C13.7543 30.1681 14.104 30.5178 14.5355 30.5178H26.7838C27.2153 30.5178 27.565 30.1681 27.565 29.7366C27.565 29.3051 27.2153 28.9553 26.7838 28.9553Z" fill="#314476"/>
<path d="M9.5697 25.7822C9.13818 25.7822 8.78845 26.1332 8.78845 26.5644C8.78845 26.9959 9.13818 27.3456 9.5697 27.3456C10.0009 27.3456 10.351 26.9959 10.351 26.5644V26.5626C10.351 26.131 10.0009 25.7822 9.5697 25.7822Z" fill="#314476"/>
</svg>
