<svg width="42" height="42" viewBox="0 0 42 42" fill="none" xmlns="http://www.w3.org/2000/svg">
<path d="M29.2144 7.21875H12.8123C12.3593 7.21875 11.9919 7.586 11.9919 8.03906V13.9453C11.9919 14.3984 12.3593 14.7656 12.8123 14.7656H29.2144C29.6674 14.7656 30.0347 14.3984 30.0347 13.9453V8.03906C30.0347 7.586 29.6674 7.21875 29.2144 7.21875ZM28.3941 13.125H13.6326V8.85938H28.3941V13.125Z" fill="#314476"/>
<path d="M12.8081 19.3594H29.2103C29.6632 19.3594 30.0306 18.9921 30.0306 18.5391C30.0306 18.086 29.6632 17.7188 29.2103 17.7188H12.8081C12.3551 17.7188 11.9878 18.086 11.9878 18.5391C11.9878 18.9921 12.355 19.3594 12.8081 19.3594Z" fill="#314476"/>
<path d="M29.2144 22.3125H29.2054C28.7525 22.3125 28.3851 22.6798 28.3851 23.1328C28.3851 23.5858 28.7525 23.9531 29.2054 23.9531H29.2144C29.6674 23.9531 30.0347 23.5858 30.0347 23.1328C30.0347 22.6798 29.6674 22.3125 29.2144 22.3125Z" fill="#314476"/>
<path d="M25.9331 22.3125H12.8081C12.3551 22.3125 11.9878 22.6798 11.9878 23.1328C11.9878 23.5858 12.3551 23.9531 12.8081 23.9531H25.9331C26.3861 23.9531 26.7534 23.5858 26.7534 23.1328C26.7534 22.6798 26.3861 22.3125 25.9331 22.3125Z" fill="#314476"/>
<path d="M41.8934 28.7998C41.8936 28.7997 41.8937 28.7996 41.8939 28.7995L36.568 19.3768C36.4225 19.1193 36.1495 18.96 35.8538 18.96H34.6173V5.74219C34.6173 4.38523 33.5133 3.28125 32.1563 3.28125H31.9922V2.46094C31.9922 1.10398 30.8882 0 29.5312 0H12.4688C11.1118 0 10.0078 1.10398 10.0078 2.46094V3.28125H9.84367C8.48671 3.28125 7.38273 4.38523 7.38273 5.74219V18.96H6.16768C5.87237 18.96 5.59995 19.1186 5.45426 19.3754L0.106887 28.7982C0.107051 28.7982 0.107215 28.7983 0.107379 28.7984C0.039375 28.9179 0 29.0558 0 29.2031V41.1797C0 41.6327 0.367336 42 0.820312 42H4.58005C5.03303 42 5.40036 41.6327 5.40036 41.1797C5.40036 40.7267 5.03303 40.3594 4.58005 40.3594H1.64062V30.0234H14.9024H17.737C18.1042 31.4828 19.4275 32.5664 20.9992 32.5664C22.5709 32.5664 23.8941 31.4828 24.2613 30.0234H29.0656H40.3594V40.3594H11.1426C10.6896 40.3594 10.3222 40.7267 10.3222 41.1797C10.3222 41.6327 10.6896 42 11.1426 42H41.1797C41.6327 42 42 41.6327 42 41.1797V29.2031C42 29.0564 41.961 28.919 41.8934 28.7998ZM11.6484 2.46094C11.6484 2.00862 12.0164 1.64062 12.4688 1.64062H29.5312C29.9836 1.64062 30.3516 2.00862 30.3516 2.46094V3.28125H11.6484V2.46094ZM6.64535 20.6006H7.38273V28.3828H2.22904L6.64535 20.6006ZM23.5421 28.3828C23.0891 28.3828 22.7218 28.7501 22.7218 29.2031C22.7218 30.153 21.9489 30.9258 20.9991 30.9258C20.0493 30.9258 19.2764 30.153 19.2764 29.2031C19.2764 28.7501 18.9091 28.3828 18.4561 28.3828H14.9024H9.02336V5.74219C9.02336 5.28987 9.39135 4.92188 9.84367 4.92188H32.1563C32.6087 4.92188 32.9766 5.28987 32.9766 5.74219V28.3828H29.0656H23.5421ZM34.6173 28.3828V20.6006H35.3752L39.7738 28.3828H34.6173Z" fill="#314476"/>
<path d="M14.1897 33.1543C13.7367 33.1543 13.3694 33.5216 13.3694 33.9746V36.4082C13.3694 36.8611 13.7367 37.2285 14.1897 37.2285H27.8086C28.2616 37.2285 28.6289 36.8611 28.6289 36.4082V33.9746C28.6289 33.5216 28.2616 33.1543 27.8086 33.1543C27.3556 33.1543 26.9883 33.5216 26.9883 33.9746V35.5878H15.01V33.9746C15.01 33.5216 14.6428 33.1543 14.1897 33.1543Z" fill="#314476"/>
<path d="M7.86108 40.3594C7.64534 40.3594 7.4337 40.4471 7.28112 40.5997C7.12854 40.7524 7.04077 40.9639 7.04077 41.1797C7.04077 41.3954 7.12846 41.6071 7.28112 41.7596C7.4337 41.9121 7.64534 42 7.86108 42C8.07765 42 8.28847 41.9122 8.44096 41.7596C8.59436 41.6071 8.6814 41.3954 8.6814 41.1797C8.6814 40.9639 8.59436 40.7523 8.44096 40.5997C8.28847 40.4471 8.07683 40.3594 7.86108 40.3594Z" fill="#314476"/>
</svg>
