<svg width="34" height="34" viewBox="0 0 34 34" fill="none" xmlns="http://www.w3.org/2000/svg">
<path d="M9.58401 11.9202C9.95081 11.9202 10.2481 11.6219 10.2481 11.2551C10.2481 10.8883 9.95081 10.5911 9.58401 10.5911C9.21722 10.5911 8.91995 10.8883 8.91995 11.2551V11.2569C8.91995 11.6237 9.21722 11.9202 9.58401 11.9202Z" fill="#314476"/>
<path d="M30.3396 13.9606H27.8782V7.34438C27.8782 7.32933 27.8779 7.31429 27.8777 7.29924C27.8688 6.9379 27.756 6.59341 27.5531 6.30107C27.549 6.2951 27.5446 6.28888 27.5404 6.28291C27.4844 6.20432 27.4219 6.12961 27.3531 6.05957L26.2639 4.94934V3.72549C26.2639 1.67131 24.5926 0 22.5384 0H9.80244C7.74826 0 6.07721 1.67131 6.07721 3.72549V13.9606H3.61551C2.02461 13.9606 0.730469 15.2548 0.730469 16.8457V29.6984C0.730469 30.9484 1.26639 32.0755 2.12059 32.8623C2.13174 32.8739 2.14368 32.8856 2.15587 32.8965C2.61397 33.3087 3.14911 33.6135 3.72523 33.7971C4.09177 33.9144 4.47983 33.9837 4.88164 33.9974H4.88345C4.89098 33.9977 4.8985 33.9979 4.90602 33.9982H4.90939C4.91614 33.9984 4.92288 33.9987 4.92963 33.9987C4.93248 33.9987 4.93507 33.999 4.93793 33.999C4.94312 33.999 4.94856 33.9992 4.95375 33.9992C4.9579 33.9992 4.96231 33.9995 4.96646 33.9995C4.97087 33.9995 4.97554 33.9995 4.97995 33.9997H4.99474H5.00589C5.01445 34 5.02327 34 5.03209 34H28.1845C29.5772 34 30.874 33.4433 31.8356 32.4324C31.8452 32.4226 31.854 32.4125 31.8628 32.4021C32.7072 31.5004 33.2247 30.2893 33.2247 28.9596V16.8457C33.2247 15.2548 31.9305 13.9606 30.3396 13.9606ZM23.1397 4.21109H23.4666C23.5952 4.21109 23.721 4.26141 23.8144 4.34987C23.8191 4.35402 23.8238 4.35843 23.8279 4.36284L25.1257 5.68578C25.1262 5.68629 25.127 5.68681 25.1275 5.68733L26.405 6.98978C26.4779 7.06422 26.5254 7.15735 26.5428 7.25826C26.5475 7.28653 26.55 7.31532 26.55 7.34438V7.51143H23.1397V4.21109ZM31.8965 18.5292V28.9396C31.8965 29.6854 31.6768 30.3806 31.2986 30.9642L23.0777 22.5047L31.8965 18.5292ZM30.3396 15.2887C31.1982 15.2887 31.8965 15.987 31.8965 16.8457V17.0724L27.8782 18.884V15.2887H30.3396ZM7.40533 3.72549C7.40533 2.40359 8.4808 1.32812 9.80244 1.32812H22.5384C23.8155 1.32812 24.8624 2.33174 24.9322 3.5919L24.776 3.43289C24.7553 3.41136 24.7337 3.39087 24.7119 3.37064C24.6442 3.30786 24.5716 3.25027 24.4951 3.19839C24.203 3.00073 23.864 2.8923 23.5122 2.88348C23.5122 2.88348 23.5122 2.88348 23.512 2.88348C23.5055 2.88348 23.4987 2.88322 23.4922 2.88297C23.4904 2.88297 23.4889 2.88297 23.4873 2.88297C23.4803 2.88297 23.4736 2.88297 23.4666 2.88297H22.4757C22.4754 2.88297 22.4754 2.88297 22.4754 2.88297H10.8079C9.76665 2.88297 8.91971 3.7299 8.91971 4.77087V8.59883C8.91971 8.96562 9.21698 9.26289 9.58377 9.26289C9.95056 9.26289 10.2478 8.96562 10.2478 8.59883V4.77113C10.2478 4.46219 10.4989 4.21109 10.8079 4.21109H21.8116V7.57732C21.8116 8.27328 22.3779 8.83955 23.0738 8.83955H26.5498V19.4825L18.4046 23.1543C18.3764 23.167 18.3478 23.1794 18.3193 23.1913C18.305 23.1973 18.2908 23.2033 18.2762 23.209C18.2547 23.2178 18.2332 23.2261 18.2114 23.2344C18.1465 23.259 18.0809 23.2819 18.015 23.3024C18.0078 23.3047 18.0002 23.307 17.993 23.3094C17.6622 23.4103 17.3198 23.4609 16.9777 23.4609C16.4986 23.4609 16.0192 23.362 15.5717 23.1638C15.5647 23.1607 15.5577 23.1576 15.5505 23.1543L12.3389 21.7065C12.3381 21.7063 12.3373 21.7058 12.3365 21.7055L10.2481 20.7641V13.9113C10.2481 13.5448 9.95082 13.2473 9.58403 13.2473C9.21724 13.2473 8.91997 13.5448 8.91997 13.9113V20.1655L7.40508 19.4827V3.72549H7.40533ZM2.45703 31.1697C2.2036 30.7303 2.05859 30.2211 2.05859 29.6784V18.5292L6.46838 20.5169L9.31114 21.7986L10.8777 22.5045L2.45703 31.1697ZM3.61551 15.2887H6.07721V18.884L2.05859 17.0724V16.8457C2.05859 15.987 2.75716 15.2887 3.61551 15.2887ZM5.0518 32.6719C4.42458 32.6719 3.84145 32.4778 3.35974 32.1466L12.1046 23.1475L12.1739 23.0891L13.9928 23.9088L15.0047 24.3651C15.0146 24.3695 15.0242 24.3739 15.034 24.3784C15.0773 24.3973 15.1209 24.416 15.1645 24.4336C15.1764 24.4385 15.1884 24.4435 15.2 24.4481C15.2516 24.4686 15.3035 24.4883 15.3557 24.507C15.366 24.5107 15.3764 24.5143 15.3868 24.5182C15.4187 24.5293 15.4506 24.5402 15.4825 24.5506C15.4828 24.5506 15.483 24.5506 15.4836 24.5509C15.5206 24.563 15.5577 24.5745 15.5951 24.5859C15.6021 24.588 15.6094 24.59 15.6166 24.5921C15.696 24.6157 15.7756 24.637 15.856 24.6562C16.883 24.9029 17.9727 24.8058 18.9504 24.3651L21.7911 23.0847L21.8152 23.1109C21.8191 23.1151 21.8233 23.1195 21.8274 23.1236L30.3894 31.9344C29.7676 32.3974 28.9975 32.6719 28.1643 32.6719H5.0518Z" fill="#314476"/>
<path d="M13.8346 11.8267H23.2253C23.5921 11.8267 23.8894 11.5294 23.8894 11.1626C23.8894 10.7958 23.5921 10.4985 23.2253 10.4985H13.8346C13.4678 10.4985 13.1705 10.7958 13.1705 11.1626C13.1705 11.5294 13.4678 11.8267 13.8346 11.8267Z" fill="#314476"/>
<path d="M13.8346 15.1538H23.2253C23.5921 15.1538 23.8894 14.8565 23.8894 14.4897C23.8894 14.123 23.5921 13.8257 23.2253 13.8257H13.8346C13.4678 13.8257 13.1705 14.123 13.1705 14.4897C13.1705 14.8565 13.4678 15.1538 13.8346 15.1538Z" fill="#314476"/>
<path d="M13.8346 18.4812H23.2253C23.5921 18.4812 23.8894 18.1837 23.8894 17.8171C23.8894 17.4503 23.5921 17.1531 23.2253 17.1531H13.8346C13.4678 17.1531 13.1705 17.4503 13.1705 17.8171C13.1705 18.1837 13.4678 18.4812 13.8346 18.4812Z" fill="#314476"/>
</svg>
