<svg width="26" height="12" viewBox="0 0 26 12" fill="none" xmlns="http://www.w3.org/2000/svg">
<path d="M25.2383 2.13616H23.4375C22.4827 1.23134 21.194 0.675537 19.7779 0.675537C18.1114 0.675537 16.6216 1.44528 15.6445 2.64768C14.1029 1.42659 11.8997 1.42451 10.3554 2.64768C9.37833 1.44528 7.88851 0.675537 6.22202 0.675537C4.80589 0.675537 3.51721 1.23139 2.56237 2.13616H0.761719C0.341047 2.13616 0 2.47721 0 2.89788C0 3.31855 0.341047 3.6596 0.761719 3.6596H1.44036C1.09302 4.36642 0.897508 5.16079 0.897508 6.0001C0.897508 8.93607 3.28611 11.3247 6.22207 11.3247C9.15804 11.3247 11.5466 8.93607 11.5466 6.0001C11.5466 5.28353 11.404 4.59971 11.1462 3.9751C12.1909 3.01513 13.8077 3.01381 14.8538 3.9751C14.596 4.59971 14.4534 5.28353 14.4534 6.0001C14.4534 8.93607 16.842 11.3247 19.778 11.3247C22.7139 11.3247 25.1025 8.93607 25.1025 6.0001C25.1025 5.16079 24.9071 4.36642 24.5597 3.6596H25.2383C25.659 3.6596 26 3.31855 26 2.89788C26 2.47721 25.659 2.13616 25.2383 2.13616ZM6.22207 9.80123C4.12613 9.80123 2.42095 8.09605 2.42095 6.0001C2.42095 3.90416 4.12613 2.19898 6.22207 2.19898C8.31802 2.19898 10.0232 3.90416 10.0232 6.0001C10.0232 8.09605 8.31802 9.80123 6.22207 9.80123V9.80123ZM19.7779 9.80123C17.682 9.80123 15.9768 8.09605 15.9768 6.0001C15.9768 3.90416 17.682 2.19898 19.7779 2.19898C21.8739 2.19898 23.5791 3.90416 23.5791 6.0001C23.5791 8.09605 21.8739 9.80123 19.7779 9.80123Z" fill="#939393"/>
</svg>
