<svg width="25" height="25" viewBox="0 0 25 25" fill="none" xmlns="http://www.w3.org/2000/svg">
<g clip-path="url(#clip0_113_345)">
<path d="M14.1455 25H10.3027C9.91211 25 9.59473 24.6826 9.59473 24.292V17.6855H9.05273C7.60254 17.6855 6.4209 16.5039 6.4209 15.0537C6.4209 13.6035 7.60254 12.4219 9.05273 12.4219H9.59473V9.91211C9.59473 7.17773 11.8164 4.95605 14.5508 4.95605H16.1377C17.4805 4.95605 18.5742 6.0498 18.5742 7.39258C18.5742 8.73535 17.4805 9.8291 16.1377 9.8291H15.4932C15.1416 9.8291 14.8535 10.1172 14.8535 10.4687V12.4316H15.9033C17.3389 12.4316 18.5205 13.5986 18.5352 15.0342C18.54 15.7422 18.2715 16.4062 17.7734 16.9092C17.2754 17.4121 16.6113 17.6904 15.9033 17.6904H14.8535V24.2969C14.8535 24.6826 14.5361 25 14.1455 25ZM11.0156 23.584H13.4375V16.9775C13.4375 16.5869 13.7549 16.2695 14.1455 16.2695H15.9082C16.2354 16.2695 16.5381 16.1426 16.7676 15.9082C16.9971 15.6787 17.1191 15.3711 17.1191 15.0439C17.1143 14.3848 16.5674 13.8428 15.9082 13.8428H14.1455C13.7549 13.8428 13.4375 13.5254 13.4375 13.1348V10.4639C13.4375 9.32617 14.3604 8.40332 15.498 8.40332H16.1426C16.7041 8.40332 17.1582 7.94434 17.1582 7.3877C17.1582 6.82617 16.6992 6.37207 16.1426 6.37207H14.5508C12.5977 6.37207 11.0107 7.95898 11.0107 9.91211V13.1348C11.0107 13.5254 10.6934 13.8428 10.3027 13.8428H9.05273C8.38379 13.8428 7.8418 14.3848 7.8418 15.0537C7.8418 15.7227 8.38379 16.2646 9.05273 16.2646H10.3027C10.6934 16.2646 11.0107 16.582 11.0107 16.9727L11.0156 23.584Z" fill="white"/>
<path fill-rule="evenodd" clip-rule="evenodd" d="M3.88184 25H13.2725H14.1455H21.1182C23.2569 25 25 23.2568 25 21.1133V3.88184C25 1.74316 23.2569 0 21.1182 0H5.47852H5.46875H3.88184C1.74316 0 0 1.74316 0 3.88184V21.1182C0 23.2568 1.74316 25 3.88184 25ZM5.46875 1.41602H3.88184C2.52441 1.41602 1.41602 2.52441 1.41602 3.88184V21.1133C1.41602 22.4707 2.51953 23.5791 3.88184 23.5791H14.1455C14.1737 23.5791 14.2016 23.5808 14.229 23.584H21.1182C22.4756 23.584 23.584 22.4805 23.584 21.1182V3.88184C23.584 2.52441 22.4805 1.41602 21.1182 1.41602H5.47852H5.46875Z" fill="white"/>
</g>
<defs>
<clipPath id="clip0_113_345">
<rect width="25" height="25" fill="white"/>
</clipPath>
</defs>
</svg>
