<svg width="22" height="22" viewBox="0 0 22 22" fill="none" xmlns="http://www.w3.org/2000/svg">
<path d="M20.7934 6.00021C18.9693 2.44245 15.2656 0 11 0C6.73302 0 3.02883 2.44338 1.20523 6.00372C1.19799 6.01796 1.18935 6.0308 1.18374 6.04575C0.42852 7.53588 0 9.21843 0 11C0 12.782 0.42852 14.4646 1.18374 15.9543C1.18935 15.9692 1.19799 15.982 1.20523 15.9963C3.02836 19.5566 6.73302 22 11 22C15.2656 22 18.9693 19.558 20.7934 15.9998C20.8015 15.9839 20.8111 15.9697 20.8172 15.9528C21.5719 14.4632 22 12.7811 22 11C22 9.2189 21.5719 7.53681 20.8172 6.04715C20.8107 6.03034 20.8015 6.01609 20.7934 6.00021ZM20.0606 15.3043H15.8566C16.0902 14.126 16.2289 12.8374 16.255 11.4783H21.0192C20.9545 12.8428 20.6187 14.1346 20.0606 15.3043ZM11 21.0435C9.48722 21.0435 8.13043 19.104 7.36097 16.2609H14.639C13.8696 19.104 12.5128 21.0435 11 21.0435ZM7.13235 15.3043C6.88504 14.1283 6.73535 12.835 6.70663 11.4783H15.2938C15.2646 12.835 15.115 14.1283 14.8681 15.3043H7.13235ZM0.980808 11.4783H5.74497C5.77159 12.8374 5.90984 14.126 6.14336 15.3043H1.93943C1.38131 14.1346 1.0455 12.8428 0.980808 11.4783ZM1.93943 6.69565H6.14336C5.90984 7.87402 5.77112 9.16262 5.74497 10.5217H0.980808C1.0455 9.15725 1.38131 7.86538 1.93943 6.69565ZM11 0.956522C12.5128 0.956522 13.8696 2.89595 14.639 5.73913H7.36097C8.13043 2.89595 9.48722 0.956522 11 0.956522ZM14.8677 6.69565C15.115 7.87122 15.2646 9.16495 15.2934 10.5217H6.70616C6.73535 9.16495 6.88504 7.87122 7.13188 6.69565H14.8677ZM16.255 10.5217C16.2284 9.16262 16.0902 7.87402 15.8566 6.69565H20.0606C20.6187 7.86538 20.9545 9.15725 21.0192 10.5217H16.255ZM19.5389 5.73913H15.6402C15.1561 3.8415 14.4139 2.29369 13.5046 1.28556C16.0446 1.9413 18.1931 3.56267 19.5389 5.73913ZM8.49497 1.28556C7.58609 2.29369 6.84394 3.8415 6.35938 5.73913H2.46066C3.80694 3.56267 5.95538 1.9413 8.49497 1.28556ZM2.46113 16.2609H6.35938C6.84347 18.1585 7.58562 19.7063 8.49497 20.7144C5.95538 20.0587 3.80694 18.4369 2.46113 16.2609ZM13.505 20.7144C14.4139 19.7063 15.1561 18.1585 15.6406 16.2609H19.5389C18.1931 18.4369 16.0446 20.0587 13.505 20.7144Z" fill="#314476"/>
</svg>
