<svg width="25" height="25" viewBox="0 0 25 25" fill="none" xmlns="http://www.w3.org/2000/svg">
<path fill-rule="evenodd" clip-rule="evenodd" d="M3.88184 25H13.2725H14.1455H21.1182C23.2568 25 25 23.2568 25 21.1133V3.88184C25 1.74316 23.2568 0 21.1182 0H5.47852H5.09763H3.88184C1.74316 0 0 1.74316 0 3.88184V21.1182C0 23.2568 1.74316 25 3.88184 25ZM5.09763 1.41602H3.88184C2.52441 1.41602 1.41602 2.52441 1.41602 3.88184V21.1133C1.41602 22.4707 2.51953 23.5791 3.88184 23.5791H14.1455C14.1737 23.5791 14.2016 23.5808 14.229 23.584H21.1182C22.4756 23.584 23.584 22.4805 23.584 21.1182V3.88184C23.584 2.52441 22.4805 1.41602 21.1182 1.41602H5.47852H5.09763Z" fill="white"/>
<path d="M17.5586 20.7275H7.44141C5.69336 20.7275 4.27246 19.3066 4.27246 17.5586V7.44141C4.27246 5.69336 5.69336 4.27246 7.44141 4.27246H17.5586C19.3066 4.27246 20.7275 5.69336 20.7275 7.44141V17.5586C20.7275 19.3066 19.3066 20.7275 17.5586 20.7275ZM7.44141 5.69336C6.47461 5.69336 5.69336 6.47949 5.69336 7.44141V17.5586C5.69336 18.5254 6.47949 19.3066 7.44141 19.3066H17.5586C18.5254 19.3066 19.3066 18.5205 19.3066 17.5586V7.44141C19.3066 6.47461 18.5205 5.69336 17.5586 5.69336H7.44141ZM12.5 16.8604C10.0977 16.8604 8.13965 14.9023 8.13965 12.5C8.13965 10.0977 10.0977 8.13965 12.5 8.13965C14.9023 8.13965 16.8604 10.0977 16.8604 12.5C16.8604 14.9023 14.9023 16.8604 12.5 16.8604ZM12.5 9.55566C10.8789 9.55566 9.55566 10.874 9.55566 12.5C9.55566 14.126 10.874 15.4443 12.5 15.4443C14.126 15.4443 15.4443 14.126 15.4443 12.5C15.4443 10.874 14.1211 9.55566 12.5 9.55566Z" fill="white"/>
<path d="M16.9141 9.02832C17.4642 9.02832 17.9102 8.58235 17.9102 8.03223C17.9102 7.4821 17.4642 7.03613 16.9141 7.03613C16.3639 7.03613 15.918 7.4821 15.918 8.03223C15.918 8.58235 16.3639 9.02832 16.9141 9.02832Z" fill="white"/>
</svg>
