<svg width="25" height="25" viewBox="0 0 25 25" fill="none" xmlns="http://www.w3.org/2000/svg">
<path d="M14.8886 17.5527L18.6283 10.9582C19.2413 9.84728 19.5652 8.58587 19.5652 7.30978C19.5652 3.27935 16.3957 0 12.5 0C8.60436 0 5.4348 3.27935 5.4348 7.30978C5.4348 8.60109 5.76197 9.86413 6.38045 10.9636L10.1109 17.5527C6.67936 18.0212 4.34784 19.4658 4.34784 21.1957C4.34784 23.3647 7.85273 25 12.5 25C17.1478 25 20.6522 23.3647 20.6522 21.1957C20.6522 19.4658 18.3207 18.0207 14.8886 17.5527ZM7.32719 10.4293C6.80001 9.49348 6.52175 8.41467 6.52175 7.30978C6.52175 3.8788 9.20382 1.08696 12.5 1.08696C15.7962 1.08696 18.4783 3.8788 18.4783 7.30978C18.4783 8.40272 18.2011 9.48261 17.6794 10.4272L12.5 19.562L11.462 17.7326L7.32719 10.4293ZM12.5 23.913C8.33643 23.913 5.4348 22.481 5.4348 21.1957C5.4348 20.163 7.3924 18.9283 10.6902 18.575L12.0272 20.9315C12.1239 21.1016 12.3044 21.2065 12.5 21.2065C12.6957 21.2065 12.8761 21.1016 12.9728 20.9315L14.3098 18.575C17.6071 18.9283 19.5652 20.163 19.5652 21.1957C19.5652 22.481 16.6636 23.913 12.5 23.913Z" fill="#314476"/>
<path d="M16.3044 7.06533C16.3044 4.96751 14.5973 3.26099 12.5 3.26099C10.4022 3.26099 8.69568 4.96751 8.69568 7.06533C8.69568 9.16316 10.4022 10.8697 12.5 10.8697C14.5973 10.8697 16.3044 9.16316 16.3044 7.06533ZM9.78263 7.06533C9.78263 5.56696 11.0017 4.34794 12.5 4.34794C13.9984 4.34794 15.2174 5.56696 15.2174 7.06533C15.2174 8.5637 13.9984 9.78272 12.5 9.78272C11.0017 9.78272 9.78263 8.5637 9.78263 7.06533Z" fill="#314476"/>
</svg>
