<svg width="26" height="26" viewBox="0 0 26 26" fill="none" xmlns="http://www.w3.org/2000/svg">
<path d="M15.4841 18.2548L19.3734 11.3965C20.0109 10.2412 20.3478 8.9293 20.3478 7.60217C20.3478 3.41052 17.0515 0 13 0C8.94851 0 5.65216 3.41052 5.65216 7.60217C5.65216 8.94513 5.99242 10.2587 6.63564 11.4021L10.5153 18.2548C6.94651 18.742 4.52173 20.2444 4.52173 22.0435C4.52173 24.2993 8.16682 26 13 26C17.8337 26 21.4782 24.2993 21.4782 22.0435C21.4782 20.2444 19.0535 18.7415 15.4841 18.2548ZM7.62025 10.8465C7.07199 9.87322 6.7826 8.75126 6.7826 7.60217C6.7826 4.03396 9.57195 1.13043 13 1.13043C16.428 1.13043 19.2174 4.03396 19.2174 7.60217C19.2174 8.73883 18.9291 9.86191 18.3865 10.8443L13 20.3444L11.9204 18.4419L7.62025 10.8465ZM13 24.8696C8.66986 24.8696 5.65216 23.3802 5.65216 22.0435C5.65216 20.9696 7.68808 19.6854 11.1178 19.318L12.5082 21.7688C12.6089 21.9457 12.7965 22.0548 13 22.0548C13.2035 22.0548 13.3911 21.9457 13.4917 21.7688L14.8822 19.318C18.3113 19.6854 20.3478 20.9696 20.3478 22.0435C20.3478 23.3802 17.3301 24.8696 13 24.8696Z" fill="white"/>
<path d="M16.9565 7.34763C16.9565 5.1659 15.1811 3.39111 13 3.39111C10.8182 3.39111 9.04346 5.1659 9.04346 7.34763C9.04346 9.52937 10.8182 11.3042 13 11.3042C15.1811 11.3042 16.9565 9.52937 16.9565 7.34763ZM10.1739 7.34763C10.1739 5.78933 11.4417 4.52155 13 4.52155C14.5583 4.52155 15.8261 5.78933 15.8261 7.34763C15.8261 8.90594 14.5583 10.1737 13 10.1737C11.4417 10.1737 10.1739 8.90594 10.1739 7.34763Z" fill="white"/>
</svg>
