<svg width="23" height="23" viewBox="0 0 23 23" fill="none" xmlns="http://www.w3.org/2000/svg">
<path d="M21.5115 16.3944L18.7667 13.6687C18.0099 12.9173 16.7785 12.9173 16.0218 13.6687L14.7741 14.9077C14.2008 15.477 13.2679 15.4768 12.6949 14.9079L7.28696 9.53325C6.71232 8.96263 6.71223 8.03906 7.28696 7.46835C7.48792 7.2688 8.06498 6.69578 8.53461 6.22943C9.28805 5.48131 9.29857 4.26234 8.53388 3.50308L5.78974 0.786713C5.03298 0.0352915 3.80163 0.0352916 3.04689 0.784743C2.48213 1.34068 2.29997 1.52002 2.04674 1.76929C-0.682224 4.47911 -0.682224 8.88833 2.04661 11.5981L10.6152 20.1112C13.3506 22.8274 17.7778 22.8276 20.5134 20.1112L21.5115 19.12C22.2683 18.3686 22.2683 17.1459 21.5115 16.3944ZM3.95985 1.69525C4.21209 1.44478 4.62247 1.44474 4.87553 1.69594L7.61967 4.41231C7.87251 4.66338 7.87251 5.06973 7.61967 5.32085L7.16216 5.77512L3.50471 2.14327L3.95985 1.69525ZM11.5303 19.2028L2.96168 10.6896C0.850358 8.59302 0.734308 5.30098 2.60478 3.06676L6.25161 6.68807C5.29337 7.76675 5.3333 9.41043 6.3718 10.4417L11.7795 15.816C11.7796 15.8161 11.7797 15.8162 11.7797 15.8162C12.8171 16.8464 14.4723 16.8886 15.5599 15.9358L19.2068 19.5572C16.964 21.4113 13.6562 21.3137 11.5303 19.2028ZM20.5966 18.2115L20.1391 18.6658L16.4793 15.0316L16.9367 14.5773C17.189 14.3268 17.5994 14.3268 17.8517 14.5773L20.5966 17.3029C20.8489 17.5535 20.8489 17.9611 20.5966 18.2115Z" fill="#314476"/>
</svg>
