<svg width="50" height="40" viewBox="0 0 50 40" fill="none" xmlns="http://www.w3.org/2000/svg">
<g clip-path="url(#clip0_113_333)">
<path d="M36.8966 37.781C36.9009 37.5733 36.8226 37.3767 36.677 37.2286C36.5315 37.0805 36.3366 36.9988 36.1289 36.9988H29.8004C29.7961 36.9988 29.7927 36.9988 29.7885 36.9988H4.51632C3.47534 36.9988 2.62842 36.1519 2.62842 35.1109V22.7118C3.70515 23.4038 4.93765 24.0303 6.29527 24.5759C6.68766 24.7342 7.13538 24.5427 7.2937 24.1503C7.45116 23.7579 7.2605 23.3102 6.86726 23.1527C4.5393 22.2173 3.06082 21.2155 2.23007 20.5388C1.78746 20.1787 1.53381 19.6451 1.53381 19.0748V10.1213C1.53381 9.08031 2.38073 8.23339 3.42171 8.23339H40.4128C41.4538 8.23339 42.3007 9.08031 42.3007 10.1213V19.0739C42.3007 19.6442 42.0471 20.1779 41.6045 20.5379C40.6554 21.3108 38.948 22.442 36.2021 23.4447C33.0757 24.587 29.3655 25.2841 25.1717 25.519V24.1929C25.1717 23.2821 24.4304 22.5408 23.5196 22.5408H20.3158C19.405 22.5408 18.6637 23.2821 18.6637 24.1929V25.5199L18.6526 25.519C15.3271 25.3411 13.8094 25.2602 11.1087 24.4763C10.7018 24.358 10.2762 24.5929 10.1579 24.9998C10.1009 25.1964 10.1238 25.4041 10.2226 25.5837C10.3213 25.7633 10.4839 25.8935 10.6814 25.9505C13.5422 26.7804 15.1704 26.8732 18.6637 27.0562V27.1771C18.6637 28.962 20.0885 30.4473 21.8394 30.489C22.7212 30.5094 23.5571 30.1809 24.1903 29.5629C24.8236 28.945 25.1726 28.1185 25.1726 27.2358V27.0562C33.5192 26.6034 38.4764 24.4772 41.207 22.7152V23.2081C41.207 23.4158 41.2887 23.6107 41.4368 23.7562C41.5849 23.9018 41.7841 23.9792 41.9892 23.9758C42.4037 23.9673 42.7416 23.6234 42.7416 23.2089V21.5832C43.4379 20.938 43.8362 20.0272 43.8362 19.0756V10.1213C43.8362 9.20884 43.4796 8.35 42.8327 7.70226C42.1858 7.05537 41.327 6.69873 40.4137 6.69873H29.9111V3.75027C29.9111 3.08124 29.5936 2.44031 29.0616 2.0343C28.9356 1.93812 28.247 1.43508 27.0452 0.951611C26.5379 0.748181 26.0016 0.57369 25.4509 0.433247C25.2475 0.381325 25.0372 0.41367 24.8585 0.524322C24.6797 0.634975 24.5572 0.808614 24.5121 1.01375C24.4252 1.4121 24.6874 1.82151 25.0968 1.92705C25.5735 2.04962 26.0365 2.20028 26.4732 2.37562C27.5286 2.79951 28.1074 3.23616 28.1313 3.25403C28.2845 3.37149 28.3764 3.5562 28.3764 3.74941V6.69873H27.1303V4.53675C27.1303 4.24735 26.9711 3.98519 26.7141 3.85411C25.9284 3.45321 24.2601 2.77993 21.9168 2.77993C19.5736 2.77993 17.9053 3.45321 17.1196 3.85411C16.8634 3.98519 16.7034 4.2465 16.7034 4.5359V6.69788H15.4573V3.75027C15.4573 3.55705 15.5492 3.37235 15.7024 3.25488C15.7263 3.23701 16.2991 2.80291 17.3605 2.37647C18.7301 1.82662 20.3047 1.53552 21.916 1.53552C22.1764 1.53552 22.4412 1.54318 22.7016 1.5585C23.1238 1.58233 23.4992 1.27335 23.5375 0.867345C23.5571 0.657956 23.4932 0.455377 23.357 0.295357C23.2208 0.136188 23.0302 0.0408563 22.8208 0.0280887C22.5212 0.0093629 22.2173 0 21.9177 0C20.1124 0 18.3394 0.329404 16.7894 0.951611C15.5884 1.43423 14.8989 1.93812 14.773 2.0343C14.241 2.43946 13.9235 3.08124 13.9235 3.75027V6.69873H3.42256C1.53552 6.69873 0 8.23424 0 10.1213V19.0731C0 20.0247 0.398349 20.9354 1.09461 21.5806V35.1109C1.09461 36.9979 2.63012 38.5334 4.51717 38.5334H28.0802C28.0844 38.5334 28.0878 38.5334 28.0921 38.5334H36.1297C36.5442 38.5334 36.8881 38.1955 36.8966 37.781ZM18.2389 6.69873V5.02532C19.0152 4.69337 20.263 4.31544 21.9168 4.31544C23.5707 4.31544 24.8193 4.69422 25.5948 5.02532V6.69873H18.2389ZM21.9177 28.9552C20.9695 28.9552 20.1983 28.184 20.1983 27.2358V24.1929C20.1983 24.1282 20.2511 24.0754 20.3158 24.0754H23.5196C23.5843 24.0754 23.6371 24.1282 23.6371 24.1929V27.2358C23.6371 28.184 22.8659 28.9552 21.9177 28.9552Z" fill="#314476"/>
<path d="M49.6455 32.9999C49.5484 32.9029 49.4199 32.8493 49.2829 32.8493H49.0479L47.5329 29.351C47.6767 29.168 47.7567 28.9416 47.7567 28.7066C47.7567 28.1312 47.2886 27.6631 46.7132 27.6631C46.4893 27.6631 46.2765 27.7329 46.0986 27.8631C44.8993 27.3337 43.6345 26.9779 42.3356 26.806C42.2096 26.3378 41.9083 25.9284 41.4963 25.6679V25.2934C41.4963 24.7887 41.0861 24.3784 40.5813 24.3784H40.3507C39.8459 24.3784 39.4356 24.7887 39.4356 25.2934V25.6679C39.0211 25.9293 38.719 26.3421 38.5938 26.8128C37.3299 26.9856 36.0991 27.332 34.9295 27.8427C34.7576 27.7261 34.555 27.6631 34.3448 27.6631C33.7694 27.6631 33.3012 28.1312 33.3012 28.7066C33.3012 28.9416 33.3813 29.168 33.5251 29.351L32.01 32.8493H31.7751C31.4925 32.8493 31.2618 33.08 31.2618 33.3625V33.7073C31.2618 34.9508 32.2739 35.962 33.5166 35.962H35.1721C36.4157 35.962 37.4269 34.95 37.4269 33.7073V33.3625C37.4269 33.0791 37.1962 32.8493 36.9136 32.8493H36.6787L35.1636 29.351C35.1909 29.3161 35.2155 29.2803 35.2385 29.242H39.1573V36.8881C38.1376 36.929 37.0873 37.678 36.9962 39.0373C36.6455 39.1752 36.4004 39.5191 36.4004 39.9081L36.4089 39.9983H37.4277H43.5043H44.5376L44.5308 39.9081C44.5308 39.5182 44.2856 39.1743 43.9349 39.0373C43.8447 37.6771 42.7935 36.929 41.7738 36.8881V33.9788C41.7738 33.6962 41.5432 33.4655 41.2606 33.4655C40.978 33.4655 40.7473 33.6962 40.7473 33.9788V36.8864H40.1847V29.2241C40.3719 29.2522 40.5609 29.2522 40.7473 29.2241V34.4486C40.7473 34.7321 40.978 34.9619 41.2606 34.9619C41.544 34.9619 41.7738 34.7312 41.7738 34.4486V29.2429H45.8177C45.8407 29.2803 45.8654 29.3169 45.8926 29.3518L44.3776 32.8501H44.1426C43.8592 32.8501 43.6294 33.0808 43.6294 33.3634V33.7081C43.6294 34.9517 44.6414 35.9629 45.8841 35.9629H47.5397C48.7832 35.9629 49.7944 34.9508 49.7944 33.7081V33.3634C49.7961 33.2255 49.7425 33.097 49.6455 32.9999ZM34.3601 28.7143C34.3533 28.7288 34.3363 28.7254 34.3303 28.7143H34.3601ZM35.173 34.9364H33.5174C32.9693 34.9364 32.4143 34.5738 32.3071 33.8766H36.3825C36.2761 34.5729 35.7211 34.9364 35.173 34.9364ZM35.5611 32.8493H33.1293L34.3456 30.0421L35.5611 32.8493ZM36.9136 28.2164C37.4686 28.0555 38.0346 27.9329 38.6075 27.8486C38.6449 27.9763 38.6943 28.0997 38.7564 28.2164H36.9136ZM41.687 37.9138C42.2352 37.9138 42.7901 38.2764 42.8974 38.9735H38.0372C38.1444 38.2764 38.6985 37.9138 39.2475 37.9138H41.687ZM40.4664 28.2164C40.2204 28.2164 39.9898 28.1193 39.817 27.9423C39.6442 27.7661 39.5523 27.5329 39.5582 27.2809V27.2801C39.5693 26.9047 39.8144 26.571 40.1694 26.4476C40.4485 26.3506 40.7482 26.3931 40.9907 26.5659C41.235 26.7396 41.3755 27.0102 41.3755 27.3073C41.3755 27.8086 40.9678 28.2164 40.4664 28.2164ZM42.1747 28.2164C42.2386 28.0972 42.2896 27.9712 42.3271 27.8418C42.9169 27.9261 43.4991 28.0512 44.0703 28.2164H42.1747ZM46.7285 28.7143C46.7217 28.7271 46.7013 28.7228 46.6979 28.716L46.7285 28.7143ZM46.7132 30.0421L47.9295 32.8493H45.4977L46.7132 30.0421ZM47.5414 34.9364H45.8858C45.3377 34.9364 44.7827 34.5738 44.6755 33.8766H48.7509C48.6445 34.5729 48.0895 34.9364 47.5414 34.9364Z" fill="#314476"/>
<path d="M8.02917 24.6755C8.02917 25.1002 8.37475 25.4466 8.80033 25.4466C9.22592 25.4466 9.57149 25.101 9.57149 24.6755C9.57149 24.2499 9.22592 23.9043 8.80033 23.9043C8.37475 23.9043 8.02917 24.2507 8.02917 24.6755Z" fill="#314476"/>
</g>
<defs>
<clipPath id="clip0_113_333">
<rect width="49.7961" height="40" fill="white"/>
</clipPath>
</defs>
</svg>
