<svg width="16" height="16" viewBox="0 0 16 16" fill="none" xmlns="http://www.w3.org/2000/svg">
<path d="M10.6855 1.83086C8.24467 -0.609961 4.27205 -0.609961 1.83123 1.83086C-0.609066 4.27221 -0.609066 8.2443 1.83123 10.6857C4.00484 12.8587 7.39014 13.0916 9.82937 11.3947C9.8807 11.6375 9.99816 11.8693 10.1871 12.0582L13.7417 15.6128C14.2597 16.1297 15.0967 16.1297 15.6121 15.6128C16.1296 15.0953 16.1296 14.2583 15.6121 13.7424L12.0575 10.1867C11.8697 9.99939 11.6374 9.88139 11.3945 9.83007C13.0924 7.3903 12.8596 4.00554 10.6855 1.83086ZM9.56323 9.56339C7.74095 11.3857 4.77524 11.3857 2.95349 9.56339C1.13226 7.74111 1.13226 4.77593 2.95349 2.95365C4.77524 1.1319 7.74095 1.1319 9.56323 2.95365C11.3855 4.77593 11.3855 7.74111 9.56323 9.56339Z" fill="#939393"/>
</svg>
