<svg width="25" height="25" viewBox="0 0 25 25" fill="none" xmlns="http://www.w3.org/2000/svg">
<g clip-path="url(#clip0_113_359)">
<path fill-rule="evenodd" clip-rule="evenodd" d="M3.88184 25H14.1455C14.1668 25 14.1879 24.999 14.2087 24.9972C14.2297 24.999 14.251 25 14.2725 25H21.1182C23.2568 25 25 23.2568 25 21.1133V3.88184C25 1.74316 23.2568 0 21.1182 0H5.47852H5.24411H3.88184C1.74316 0 0 1.74316 0 3.88184V21.1182C0 23.2568 1.74316 25 3.88184 25ZM5.24411 1.41602H3.88184C2.52441 1.41602 1.41602 2.52441 1.41602 3.88184V21.1133C1.41602 22.4707 2.51953 23.5791 3.88184 23.5791H14.1455C14.1763 23.5791 14.2066 23.5811 14.2363 23.5849C14.2483 23.5843 14.2603 23.584 14.2725 23.584H21.1182C22.4756 23.584 23.584 22.4805 23.584 21.1182V3.88184C23.584 2.52441 22.4805 1.41602 21.1182 1.41602H5.47852H5.24411Z" fill="white"/>
<path d="M17.1533 19.8682C16.8359 19.8682 16.5332 19.7705 16.2744 19.5801C16.2695 19.5752 16.2646 19.5703 16.2598 19.5703L12.4316 16.5918L10.8496 18.1006C10.5957 18.3545 10.2637 18.4912 9.90234 18.4912C9.31151 18.4912 8.79882 18.1152 8.62304 17.5537C8.61816 17.5439 8.61816 17.5342 8.61327 17.5244L7.69042 14.0674L4.7705 13.2031C4.2578 13.0518 3.90624 12.6074 3.88671 12.0703C3.8623 11.5332 4.1748 11.0596 4.67284 10.8643L19.1309 5.22949C19.3017 5.16113 19.4824 5.12695 19.6582 5.12695C20.0976 5.12695 20.5078 5.32227 20.7861 5.66895C21.0644 6.01074 21.167 6.45019 21.0791 6.87988L18.6084 18.6816C18.4717 19.3701 17.8564 19.8682 17.1533 19.8682ZM17.124 18.4375C17.1338 18.4473 17.1435 18.4473 17.1582 18.4473C17.1631 18.4473 17.2168 18.4473 17.2266 18.3936L19.6924 6.5918C19.6973 6.57715 19.6924 6.57227 19.6875 6.5625C19.6777 6.55273 19.668 6.54785 19.6631 6.54785C19.6582 6.54785 19.6533 6.54785 19.6484 6.55273L5.68359 11.9922L8.47655 12.8174C8.71581 12.8857 8.89648 13.0762 8.95995 13.3154L9.94628 17.002L11.8994 15.1416C12.1533 14.8975 12.5488 14.8779 12.8223 15.0928L17.124 18.4375Z" fill="white"/>
<path d="M10.7275 17.5877C10.752 17.6609 11.5625 16.6453 11.5723 16.5671L11.2061 14.7849C11.1572 14.5505 11.2451 14.3064 11.4258 14.155L18.1055 8.60327C18.2666 8.46167 18.0811 8.20777 17.8955 8.32495L10.0391 13.115C9.85352 13.2273 9.75586 13.447 9.79981 13.6619L10.7275 17.5877Z" fill="white"/>
</g>
<defs>
<clipPath id="clip0_113_359">
<rect width="25" height="25" fill="white"/>
</clipPath>
</defs>
</svg>
