<svg width="24" height="24" viewBox="0 0 24 24" fill="none" xmlns="http://www.w3.org/2000/svg">
<path d="M22.4473 17.7016L19.5831 14.718C18.7934 13.8955 17.5085 13.8955 16.7188 14.718L15.417 16.0742C14.8187 16.6973 13.8453 16.6971 13.2473 16.0744L7.60426 10.1912C7.00463 9.56663 7.00454 8.55568 7.60426 7.93098C7.81396 7.71254 8.41611 7.0853 8.90616 6.57483C9.69236 5.75593 9.70334 4.42163 8.90539 3.59053L6.04195 0.617157C5.25229 -0.205359 3.9674 -0.205359 3.17985 0.615001C2.59053 1.22353 2.40045 1.41985 2.13621 1.6927C-0.711396 4.65891 -0.711396 9.4853 2.13607 12.4514L11.0772 21.77C13.9315 24.7432 18.5512 24.7435 21.4057 21.77L22.4473 20.6851C23.2369 19.8625 23.2369 18.5241 22.4473 17.7016ZM4.1325 1.61166C4.39571 1.33749 4.82393 1.33744 5.08799 1.61241L7.95144 4.58579C8.21527 4.86061 8.21527 5.30541 7.95144 5.58029L7.47403 6.07754L3.65757 2.10206L4.1325 1.61166ZM12.0321 20.7756L3.09093 11.457C0.887817 9.16205 0.766722 5.55854 2.71851 3.11292L6.5239 7.07687C5.524 8.2576 5.56567 10.0568 6.64931 11.1856L12.2921 17.0685C12.2922 17.0685 12.2923 17.0686 12.2923 17.0687C13.3748 18.1963 15.102 18.2425 16.2369 17.1995L20.0423 21.1636C17.702 23.1932 14.2504 23.0863 12.0321 20.7756ZM21.4926 19.6906L21.0152 20.1879L17.1963 16.2098L17.6736 15.7125C17.9368 15.4383 18.3651 15.4383 18.6283 15.7125L21.4925 18.6961C21.7558 18.9703 21.7558 19.4164 21.4926 19.6906Z" fill="#939393"/>
</svg>
