<svg width="38" height="37" viewBox="0 0 38 37" fill="none" xmlns="http://www.w3.org/2000/svg">
<g clip-path="url(#clip0_113_250)">
<path d="M36.0479 30.9374L27.311 22.4306C27.1166 22.2414 26.8321 22.1695 26.5679 22.2431L25.2667 22.6051C25.1913 22.6261 25.1197 22.6583 25.0545 22.7007L23.7163 23.5702L21.7432 24.8522C17.87 22.3363 14.5278 19.0102 12.0285 15.1852L13.4614 13.79C13.4616 13.7898 13.4616 13.7898 13.4618 13.7896L14.5774 12.7033C14.6684 12.6147 14.7346 12.5051 14.77 12.3847L15.1417 11.1178C15.2173 10.8604 15.1435 10.5835 14.9492 10.3942L6.21247 1.88721C6.00258 1.68291 5.68968 1.61686 5.41151 1.71832L3.92431 2.26133C3.82323 2.29825 3.73135 2.35585 3.6549 2.43021C3.32849 2.74804 3.01447 3.09021 2.72175 3.44713C2.7216 3.44728 2.72145 3.44742 2.72138 3.44757C-1.23707 8.27273 -0.835695 15.2088 3.65497 19.5813L17.8756 33.4276C20.2982 35.7865 23.4864 36.9866 26.6878 36.9863C29.4206 36.9862 32.1632 36.1115 34.4453 34.3366C34.8122 34.0512 35.1637 33.7454 35.4901 33.4276C35.5665 33.3532 35.6257 33.2637 35.6636 33.1653L36.2213 31.7174C36.3256 31.4468 36.2577 31.1418 36.0479 30.9374ZM4.61217 3.58422L5.48676 3.26495L13.5641 11.1298L13.3686 11.7963L12.9268 12.2264L8.65501 8.06699L4.34098 3.86649C4.42997 3.77045 4.52051 3.67629 4.61217 3.58422ZM18.9459 32.3855L4.72528 18.5391C0.982883 14.8952 0.473298 9.22468 3.39922 5.03379L11.8565 13.2685L10.533 14.5572C10.2859 14.7978 10.2402 15.1721 10.4224 15.4625C13.1568 19.8192 16.9307 23.5857 21.3363 26.3549C21.5896 26.5142 21.916 26.5117 22.1669 26.3488L24.0402 25.1315L32.8163 33.6767C28.5121 36.5256 22.6884 36.0294 18.9459 32.3855ZM34.305 32.4957C34.2105 32.5849 34.1138 32.673 34.0151 32.7597L25.3241 24.2973L25.7963 23.9905L26.5555 23.7792L34.6329 31.6441L34.305 32.4957Z" fill="#314476"/>
<path d="M20.3951 30.7997L15.024 25.57C14.7285 25.2823 14.2493 25.2824 13.9536 25.57C13.6581 25.8578 13.6581 26.3244 13.9536 26.6123L19.3248 31.842C19.4725 31.9859 19.6663 32.0578 19.8599 32.0578C20.0535 32.0578 20.2473 31.9858 20.3951 31.842C20.6906 31.5542 20.6906 31.0876 20.3951 30.7997Z" fill="#314476"/>
<path d="M13.0054 23.6047L12.645 23.2537C12.3495 22.9659 11.8702 22.9659 11.5746 23.2537C11.2791 23.5414 11.2791 24.008 11.5746 24.2959L11.9351 24.6469C12.0829 24.7908 12.2766 24.8627 12.4702 24.8627C12.6639 24.8627 12.8576 24.7908 13.0054 24.6469C13.3009 24.3591 13.3009 23.8925 13.0054 23.6047Z" fill="#314476"/>
<path d="M18.1385 9.41992C17.7205 9.41992 17.3817 9.74981 17.3817 10.1568C17.3817 10.5638 17.7205 10.8937 18.1385 10.8937C22.9287 10.8937 26.8259 14.6884 26.8259 19.3525C26.8259 19.7595 27.1647 20.0894 27.5827 20.0894C28.0007 20.0894 28.3395 19.7595 28.3395 19.3525C28.3395 13.8757 23.7634 9.41992 18.1385 9.41992Z" fill="#314476"/>
<path d="M18.1385 4.78687C17.7205 4.78687 17.3817 5.11676 17.3817 5.52376C17.3817 5.93076 17.7205 6.26065 18.1385 6.26065C25.5524 6.26065 31.584 12.1336 31.584 19.3524C31.584 19.7594 31.9229 20.0893 32.3409 20.0893C32.7589 20.0893 33.0977 19.7594 33.0977 19.3524C33.0977 11.321 26.387 4.78687 18.1385 4.78687Z" fill="#314476"/>
<path d="M32.1827 5.67816C28.4313 2.02557 23.4436 0.013916 18.1385 0.013916C17.7205 0.013916 17.3817 0.343808 17.3817 0.750807C17.3817 1.15781 17.7205 1.4877 18.1385 1.4877C28.2556 1.4877 36.4864 9.50194 36.4864 19.3528C36.4864 19.7598 36.8252 20.0897 37.2432 20.0897C37.6612 20.0897 38 19.7598 38 19.3528C38 14.1873 35.934 9.33082 32.1827 5.67816Z" fill="#314476"/>
</g>
<defs>
<clipPath id="clip0_113_250">
<rect width="38" height="37" fill="white"/>
</clipPath>
</defs>
</svg>
