<svg width="23" height="23" viewBox="0 0 23 23" fill="none" xmlns="http://www.w3.org/2000/svg">
<path d="M21.5115 17.0978L18.7666 14.3721C18.0098 13.6206 16.7785 13.6206 16.0217 14.3721L14.7741 15.611C14.2008 16.1804 13.2679 16.1802 12.6948 15.6113L7.28694 10.2364C6.7123 9.6658 6.71221 8.7422 7.28694 8.17148C7.4879 7.97191 8.06496 7.39887 8.53459 6.93251C9.28803 6.18436 9.29855 4.96536 8.53386 4.20607L5.78972 1.48961C5.03297 0.738166 3.80162 0.738166 3.04689 1.48764C2.48212 2.04359 2.29996 2.22294 2.04673 2.47223C-0.682222 5.18214 -0.682222 9.5915 2.0466 12.3013L10.6152 20.8147C13.3505 23.5311 17.7778 23.5313 20.5133 20.8147L21.5115 19.8235C22.2682 19.0721 22.2682 17.8493 21.5115 17.0978ZM3.95984 2.39818C4.21208 2.1477 4.62246 2.14766 4.87552 2.39887L7.61965 5.11533C7.87249 5.36641 7.87249 5.77278 7.61965 6.0239L7.16214 6.47818L3.5047 2.84622L3.95984 2.39818ZM11.5303 19.9063L2.96167 11.3928C0.850355 9.29618 0.734306 6.00403 2.60477 3.76973L6.25159 7.39117C5.29336 8.46988 5.33329 10.1136 6.37178 11.1449L11.7795 16.5194C11.7795 16.5195 11.7796 16.5196 11.7797 16.5196C12.817 17.5498 14.4722 17.592 15.5598 16.6392L19.2067 20.2607C16.9639 22.1149 13.6562 22.0173 11.5303 19.9063ZM20.5966 18.915L20.1391 19.3693L16.4793 15.7349L16.9367 15.2806C17.189 15.0302 17.5994 15.0301 17.8517 15.2806L20.5965 18.0064C20.8488 18.2569 20.8488 18.6645 20.5966 18.915Z" fill="white"/>
</svg>
