<svg width="16" height="16" viewBox="0 0 16 16" fill="none" xmlns="http://www.w3.org/2000/svg">
<path d="M14.975 2.87178H1.025C0.459375 2.87178 0 2.4124 0 1.84678C0 1.28115 0.459375 0.821777 1.025 0.821777H14.975C15.5406 0.821777 16 1.28115 16 1.84678C16 2.4124 15.5406 2.87178 14.975 2.87178Z" fill="#939393"/>
<path d="M9.23125 9.02498H1.025C0.459375 9.02498 0 8.56561 0 7.99998C0 7.43435 0.459375 6.97498 1.025 6.97498H9.23125C9.79688 6.97498 10.2563 7.43435 10.2563 7.99998C10.2563 8.56561 9.79688 9.02498 9.23125 9.02498Z" fill="#939393"/>
<path d="M14.975 9.02511H13.3344C12.7687 9.02511 12.3094 8.56573 12.3094 8.0001C12.3094 7.43447 12.7687 6.9751 13.3344 6.9751H14.975C15.5406 6.9751 16 7.43447 16 8.0001C16 8.56573 15.5406 9.02511 14.975 9.02511Z" fill="#939393"/>
<path d="M14.975 15.1781H1.025C0.459375 15.1781 0 14.7218 0 14.1531C0 13.5843 0.459375 13.1281 1.025 13.1281H14.975C15.5406 13.1281 16 13.5874 16 14.1531C16 14.7218 15.5406 15.1781 14.975 15.1781Z" fill="#939393"/>
</svg>
