<svg width="25" height="25" viewBox="0 0 25 25" fill="none" xmlns="http://www.w3.org/2000/svg">
<g clip-path="url(#clip0_113_9)">
<path fill-rule="evenodd" clip-rule="evenodd" d="M3.88184 25H14.1455C14.1668 25 14.1879 24.999 14.2088 24.9972C14.2298 24.999 14.251 25 14.2725 25H21.1182C23.2569 25 25 23.2568 25 21.1133V3.88184C25 1.74316 23.2569 0 21.1182 0H5.47852H5.09766H3.88184C1.74316 0 0 1.74316 0 3.88184V21.1182C0 23.2568 1.74316 25 3.88184 25ZM5.09766 1.41602H3.88184C2.52441 1.41602 1.41602 2.52441 1.41602 3.88184V21.1133C1.41602 22.4707 2.51953 23.5791 3.88184 23.5791H14.1455C14.1763 23.5791 14.2066 23.5811 14.2364 23.5849C14.2483 23.5843 14.2604 23.584 14.2725 23.584H21.1182C22.4756 23.584 23.584 22.4805 23.584 21.1182V3.88184C23.584 2.52441 22.4805 1.41602 21.1182 1.41602H5.47852H5.09766Z" fill="white"/>
<path d="M11.0938 19.9365C9.63872 19.9365 8.31548 19.6875 7.46098 19.4824C6.97759 19.3652 6.58696 19.248 6.3477 19.1699C5.85942 19.0088 5.50298 18.8965 5.4688 18.4131C5.4395 18.0469 5.69341 17.7246 6.05473 17.6611C7.49028 17.4121 8.38384 17.1191 8.93559 16.8652C8.22759 16.6455 7.60747 16.2305 7.13384 15.6445C6.89946 15.3516 6.8311 14.9609 6.94829 14.6094C5.89848 14.0674 5.41997 13.1641 5.21489 12.5586C5.0977 12.2217 5.15141 11.8506 5.35649 11.5625C5.40532 11.499 5.45903 11.4355 5.51762 11.3818C4.50688 10.1709 4.59477 8.90625 4.71196 8.33008C4.8145 7.81738 5.2686 7.44629 5.79106 7.44629C6.03032 7.44629 6.25981 7.52441 6.45512 7.6709C8.31548 9.10645 10.3956 9.375 11.5674 9.39941C11.4258 8.3252 11.7823 7.14356 12.5098 6.28906C13.1836 5.49805 14.1211 5.06348 15.1465 5.06348C15.4493 5.06348 15.7666 5.10254 16.084 5.17578C17.0508 5.40039 17.8272 6.03027 18.335 6.99707L19.9073 7.59766C20.1416 7.68555 20.3125 7.89551 20.3565 8.14941C20.3956 8.39844 20.3028 8.65234 20.1026 8.81348L18.9893 9.7168C19.17 12.3682 19.0577 15.5811 17.0508 17.749C15.7081 19.1992 13.7061 19.9365 11.0938 19.9365ZM9.04302 18.3496C9.66802 18.4473 10.3663 18.5156 11.0938 18.5156C13.2911 18.5156 14.9463 17.9346 16.0108 16.7822C17.7393 14.917 17.7393 11.8848 17.5489 9.45313C17.5293 9.21875 17.627 8.99414 17.8077 8.84766L18.252 8.48633L17.5635 8.22266C17.3877 8.1543 17.2461 8.02246 17.168 7.85156C16.8506 7.13379 16.3721 6.69922 15.7569 6.55762C15.5469 6.50879 15.337 6.48438 15.1416 6.48438C14.3653 6.48438 13.8672 6.87988 13.584 7.21191C13.1055 7.77344 12.8663 8.58398 12.9786 9.27734C13.0079 9.46289 13.0567 9.63867 13.1299 9.80957C13.2129 10.0146 13.1983 10.249 13.086 10.4395C12.9737 10.6299 12.7784 10.7568 12.5586 10.7861C12.4805 10.7959 12.1827 10.8252 11.7334 10.8252C10.5127 10.8252 8.21782 10.5957 6.0645 9.14063C6.08891 9.78027 6.42094 10.5518 7.51958 11.2451C7.77348 11.4063 7.90044 11.709 7.83208 12.002C7.7686 12.2949 7.52446 12.5146 7.22661 12.5488C7.20219 12.5537 7.06059 12.5684 6.85551 12.5684C6.8311 12.5684 6.8018 12.5684 6.77739 12.5684C7.16313 13.2129 7.81743 13.5742 8.7354 13.6377C9.0479 13.6572 9.30669 13.8818 9.37505 14.1846C9.44341 14.4873 9.30669 14.8047 9.03813 14.9561C8.99907 14.9756 8.86235 15.0537 8.63286 15.1318C8.98442 15.4053 9.48247 15.6299 10.1807 15.6299C10.2735 15.6299 10.3711 15.625 10.4688 15.6201C10.8594 15.5859 11.2012 15.8789 11.2354 16.2646C11.25 16.4307 11.2354 17.0117 10.4639 17.6123C10.0977 17.8809 9.62895 18.1299 9.04302 18.3496Z" fill="white"/>
</g>
<defs>
<clipPath id="clip0_113_9">
<rect width="25" height="25" fill="white"/>
</clipPath>
</defs>
</svg>
