<svg width="25" height="25" viewBox="0 0 25 25" fill="none" xmlns="http://www.w3.org/2000/svg">
<path fill-rule="evenodd" clip-rule="evenodd" d="M3.88184 25H12.2725H14.1455H21.1182C23.2568 25 25 23.2568 25 21.1133V3.88184C25 1.74316 23.2568 0 21.1182 0H5.47852H3.88184H3.63278C3.56828 0 3.50598 0.00844226 3.44689 0.0242676C1.51177 0.241494 0 1.89016 0 3.88184V21.1182C0 23.2568 1.74316 25 3.88184 25ZM3.88184 1.41602H5.47852H21.1182C22.4805 1.41602 23.584 2.52441 23.584 3.88184V21.1182C23.584 22.4805 22.4756 23.584 21.1182 23.584H14.229C14.2016 23.5808 14.1737 23.5791 14.1455 23.5791H3.88184C2.51953 23.5791 1.41602 22.4707 1.41602 21.1133V3.88184C1.41602 2.52441 2.52441 1.41602 3.88184 1.41602Z" fill="white"/>
<path d="M18.2568 21.0938H6.74316C5.22461 21.0938 3.98926 19.8584 3.98926 18.3398V14.2725C3.98926 12.7539 5.22461 11.5186 6.74316 11.5186H18.2568C19.7754 11.5186 21.0107 12.7539 21.0107 14.2725V18.3398C21.0107 19.8584 19.7754 21.0938 18.2568 21.0938ZM6.74316 12.9395C6.00586 12.9395 5.41016 13.54 5.41016 14.2725V18.3398C5.41016 19.0771 6.01074 19.6729 6.74316 19.6729H18.2568C18.9941 19.6729 19.5898 19.0723 19.5898 18.3398V14.2725C19.5898 13.5352 18.9893 12.9395 18.2568 12.9395H6.74316Z" fill="white"/>
<path d="M8.93066 10.5273V8.48144C8.93066 8.33008 8.91113 8.21289 8.84766 8.01758L7.83691 4.61426H9.12109C9.12109 4.61426 9.60937 6.81152 9.72656 6.81152C9.83887 6.81152 10.3174 4.61426 10.3174 4.61426H11.5625L10.5078 8.00293C10.4687 8.13477 10.4248 8.38867 10.4248 8.49609V10.5225L8.93066 10.5273Z" fill="white"/>
<path d="M12.8564 10.6152C12.0508 10.6152 11.5088 10.1269 11.5088 9.39941V6.9873C11.5088 6.26465 12.0508 5.78125 12.8564 5.78125C13.6767 5.78125 14.2041 6.26953 14.2041 7.03125V9.40429C14.2041 10.1269 13.6621 10.6152 12.8564 10.6152ZM12.8564 6.93848C12.7246 6.93848 12.6318 7.04101 12.6318 7.19238V9.17968C12.6318 9.37011 12.749 9.43359 12.8564 9.43359C12.9639 9.43359 13.081 9.36523 13.081 9.17968V7.19238C13.081 7.0459 12.9883 6.93848 12.8564 6.93848Z" fill="white"/>
<path d="M16.2402 10.6152L16.0889 10.3809C16.0693 10.3516 16.0303 10.3516 16.0107 10.376C15.9375 10.459 15.752 10.6152 15.3662 10.6152C15.0781 10.6152 14.668 10.3711 14.668 9.83398V5.78125H15.6738V8.95019C15.6738 9.12597 15.791 9.2041 15.8984 9.2041C16.001 9.2041 16.123 9.13574 16.123 8.95019V5.78125H17.1631V10.6152H16.2402Z" fill="white"/>
<path d="M7.88086 18.916V15.0293L7.87598 14.9219H6.96289V13.8086H9.89258L9.8877 14.9219H8.96484L8.96973 15.0439V18.916H7.88086Z" fill="white"/>
<path d="M11.7773 19.0088L11.6504 18.8232C11.6309 18.7939 11.5869 18.7939 11.5674 18.8184C11.5088 18.8916 11.3574 19.0088 11.0059 19.0088C10.7568 19.0088 10.4102 18.7988 10.4102 18.3398V14.8145H11.2695V17.5684C11.2695 17.7295 11.3769 17.8027 11.4746 17.8027C11.5771 17.8027 11.6797 17.7295 11.6797 17.5684V14.8145H12.5683V19.0088H11.7773Z" fill="white"/>
<path d="M14.5752 19.0088C14.2334 19.0088 14.1553 18.9014 14.0918 18.8477C14.0772 18.833 14.0527 18.8379 14.0381 18.8525L13.8867 19.0088H13.0273V13.6084H13.9307V14.8682C13.9307 14.9707 13.9893 15.0146 14.043 15.0146C14.0967 15.0146 14.126 14.9854 14.1699 14.9365C14.2578 14.8486 14.3701 14.8096 14.5215 14.8096C14.7461 14.8096 15.2637 14.9365 15.2637 16.1182V17.6416C15.2686 18.5498 15.0342 19.0088 14.5752 19.0088ZM14.0137 18.0078C14.0527 18.0518 14.1113 18.0713 14.1602 18.0713C14.2139 18.0713 14.3457 18.0469 14.3457 17.8418V16.0107C14.3457 15.874 14.2725 15.7813 14.1602 15.7813C14.0283 15.7813 13.9307 15.9033 13.9307 16.0596V17.8027C13.9355 17.8906 13.96 17.959 14.0137 18.0078Z" fill="white"/>
<path d="M16.792 19.0088C16.0791 19.0088 15.6543 18.5254 15.6543 17.7148V15.9082C15.6543 15.1025 16.2842 14.8145 16.8213 14.8145C17.6514 14.8145 18.0273 15.4688 18.0273 16.0742V16.6357H16.6992V16.6406V17.7832C16.6992 17.9688 16.8066 18.0322 16.9043 18.0322C17.002 18.0322 17.1094 17.9492 17.1094 17.7881V17.4512H18.0322L18.0078 17.8857C18.0127 18.8135 17.3486 19.0088 16.792 19.0088ZM16.8994 15.5469C16.8018 15.5469 16.6992 15.6201 16.6992 15.791V16.1572C16.6992 16.2256 16.7578 16.2842 16.8311 16.2842C17.0117 16.2842 17.1094 16.2842 17.1094 16.1572C17.1143 15.6982 17.1143 15.5469 16.8994 15.5469Z" fill="white"/>
</svg>
